<?xml version="1.0" encoding="UTF-8"?>
<svg id="Layer_1" xmlns="http://www.w3.org/2000/svg" version="1.1" viewBox="0 0 330.57 141.73">
  <!-- Generator: Adobe Illustrator 29.3.1, SVG Export Plug-In . SVG Version: 2.1.0 Build 151)  -->
  <path d="M78.92,2.79c1.66-1.31,3.48-3.04,5.76-2.76,1.95.61,2.42,2.8,3.29,4.38,1.25,2.67,4.25,4.71,3.75,8-.87,5.95-3.89,11.29-5.85,16.92-4.23,9.72-6.23,20.18-8.84,30.41,7.86-1.28,15.75-2.52,23.69-3.24,3.71-.51,7.11,3.53,5.35,7.04-4.14,8.17-8.71,16.18-12.16,24.69-.68,1.6-.96,3.33-1.08,5.06,2.86-.04,4.4-2.78,6.22-4.56,7.45-8.56,13.69-18.29,18.05-28.78.99-1.89.43-4.66,2.54-5.83,2.83-1.73,6.84-3.23,9.84-1.06,2.3,1.76.87,4.78.38,7.07,2.34-2.94,4.87-5.81,7.97-7.97,3.71-2.77,9.3-.31,11.12,3.57.96,2.1-.61,4.16-2.19,5.41-3.47,2.89-8.25,2.84-12.25,4.59-4.36,1.55-7.29,5.33-9.9,8.96-5.23,7.25-9.35,15.63-10.01,24.66-.11,1.11-.04,2.53-1.16,3.18-2.16,1.43-4.59,2.84-7.26,2.79-1.99-.03-3.56-1.76-3.85-3.64-.79-2.69.07-5.48.43-8.15-3,5.01-6.75,9.66-11.28,13.37-2.44,2.13-5.89,2.95-9.02,2.03-2.26-1.18-3.38-3.78-3.56-6.21-.42-5,1.12-9.89,2.71-14.56,2.74-7.16,5.94-14.15,9.32-21.04-5.5,1.09-10.98,2.3-16.41,3.68-2.29,10.7-3.47,21.6-4.68,32.47-.38,2.83-.06,6-1.8,8.44-2.35,2.89-7.51,2.85-9.66-.28-2.39-3.5-2.53-8-2.28-12.09.73-8.55,2.69-16.92,4.63-25.26-6.41,1.8-12.8,3.69-19.18,5.6-4.74,8.77-8.98,17.81-13.07,26.91-4.1,9.65-8.5,19.26-10.97,29.49-.71,2.42-2.06,5.41-4.94,5.66-5.66.13-10.29-6.05-8.6-11.47,2.17-7.26,5.26-14.21,8.26-21.17,3.33-7.76,7.07-15.32,10.94-22.82-5.13,2.09-10.13,4.48-14.99,7.14-2.15,1.39-5.21.89-6.76-1.15-2.37-3.71-1.91-9.76,2.52-11.74,8.5-3.9,17.3-7.17,26.27-9.81.8-.31,1.86-.42,2.3-1.27,10.28-17.71,21.09-35.17,33.32-51.61,4.06-5.26,8.11-10.62,13.1-15.04M49.22,65.39c4.9-1.19,9.95-1.87,14.71-3.45,3.03-13.24,7.39-26.15,11.98-38.91-9.8,13.52-18.43,27.85-26.7,42.36Z" style="fill: #dd1f27;"/>
  <path d="M216.16,3.29c1.84-1.55,3.92-3.64,6.53-3.22,1.69.64,2.1,2.53,2.87,3.96.77,1.84,2.21,3.25,3.25,4.92,1.3,2.29.5,4.98-.18,7.34-2.29,6.96-5.44,13.6-7.84,20.52-2.4,7.53-3.94,15.3-6.01,22.92,3.95-.37,8.38-1.63,12.04.49.96,2.65.06,6.5-2.92,7.44-3.76,1.39-7.84,1.63-11.61,3-2.19,10.77-3.47,21.69-4.73,32.61-.21,2.33-.19,4.73-.97,6.98-1.13,3.32-5.63,4.44-8.53,2.85-2.45-1.49-3.54-4.36-3.97-7.06-.49-3.64-.23-7.33.22-10.95,1.02-7.17,2.6-14.25,4.28-21.29-6.46,1.77-12.92,3.54-19.26,5.7-8.64,16.81-16.83,33.95-22.83,51.91-1.22,3.52-1.27,8.52-5.24,10.15-6.01,1.14-11.52-5.72-9.5-11.47,5.07-15.2,12-29.71,19.19-44.01-5.11,2.11-10.09,4.54-14.89,7.32-1.6,1.06-3.86,1.04-5.32-.25-2.83-2.19-2.3-6.3-1.9-9.42,1.55-3.37,5.45-4.27,8.52-5.72,7.34-3.33,15.06-5.72,22.66-8.29,8.7-14.73,17.57-29.4,27.41-43.41,5.76-8.04,11.51-16.21,18.72-23.03M187.07,65.27c4.77-1.07,9.55-2.15,14.36-3.03,3.5-13.3,7.51-26.46,12.32-39.35-9.75,13.56-18.44,27.85-26.67,42.38Z" style="fill: #dd1f27;"/>
  <path d="M279.46,27.08c3.13-1.48,7.72-.48,8.75,3.17,1.62,6.43-5.29,12.94-11.62,11.48-2.19-.61-3.92-2.72-3.92-5.03-.24-4.26,2.96-8.12,6.8-9.61" style="fill: #dd1f27;"/>
  <path d="M108.45,33.04c2.9-1.37,7.26-.87,8.66,2.36,2.17,5.52-2.84,11.56-8.29,12.36-2.94.59-6.25-1.19-6.89-4.22-.79-4.5,2.46-8.87,6.52-10.5" style="fill: #dd1f27;"/>
  <path d="M304.93,44.06c2.71-1.31,6.41-1.7,8.74.58,1.62,1.31,1.88,3.5,2.99,5.14,2.03,1.63,5.06,1.96,6.51,4.32.4,1.64-.3,3.24-1.06,4.65-3.19,5.45-6.35,10.97-8.65,16.88-.42,1.43-1.02,3.54.61,4.44,1.81.34,3.07-1.16,4.27-2.24,2.95-2.78,4.98-6.3,7.2-9.65.82-1.4,2.56-1.91,4.08-1.46,1.01.67,1.16,1.92.69,2.98-1.93,5.41-5.45,10.02-9.1,14.39-3.29,3.68-7.04,7.26-11.85,8.79-2.31.76-5.04.97-7.12-.51-1.86-1.28-2.18-3.69-2.83-5.68-3.57,3.27-6.55,7.39-11.09,9.41-3.48,1.7-8.4,1.51-10.87-1.81-2.07-2.54-2.16-5.96-2.02-9.08-3.83,5.53-8.06,10.91-13.49,14.95-2.5,1.91-5.93,3.02-8.98,1.84-3-1.41-3.82-5.08-3.57-8.1.42-6.91,3.57-13.24,6.44-19.4,3.4-7.49,8.12-14.38,10.58-22.29,2.65-3.15,8.21-4.42,11.45-1.4,1.61,1.39,1.43,3.84.81,5.66-4.47,8.87-9.93,17.22-14.05,26.27-.62,1.33-.72,2.79-.84,4.23,2.69-.19,4.46-2.56,6.13-4.41,7.37-9.25,13.89-19.18,21.77-28.01,3.88-4.1,8.11-8.05,13.24-10.52M305.45,55.5c-6.7,6.04-11.24,14.04-15.07,22.11-1.02,2.56-2.9,5.51-1.25,8.21,4.08-1.03,6.59-4.71,9.1-7.8,4.57-6.28,8.38-13.14,11.31-20.34.34-1.3,1.31-3.19-.05-4.18-1.61-.16-2.89,1.04-4.03,1.99Z" style="fill: #dd1f27;"/>
  <path d="M242.4,54.61c3.54-.98,7.45-.89,10.86.57,2.19,1.02,4.24,3.18,4,5.76-.34,2.43-1.68,4.63-3.35,6.38-.95,1.06-2.57.98-3.82.62-1.58-1.8-2.43-4.7-5.13-5.12-2.48.06-5.12,1.26-6.13,3.65-1.33,3.06-1.16,6.89.9,9.59,2.23,3.2,5.34,6.12,5.84,10.18.59,6.62-2.18,13.71-7.84,17.45-4.59,3.06-10.29,4.89-15.82,3.97-3.76-.75-7.67-2.79-9.22-6.5-1.46-2.97.57-6.07,1.74-8.77.68-1.44,1.88-3.99,3.85-2.73,2.54,2.51,5.07,5.35,8.69,6.21,2.12.73,5.15-.32,5.61-2.7.09-2.61-2.15-4.4-3.43-6.44-3.43-4.62-3.57-10.92-1.7-16.18,2.47-7.03,7.72-13.48,14.93-15.93" style="fill: #dd1f27;"/>
</svg>