<?xml version="1.0" encoding="UTF-8"?>
<svg id="Layer_1" xmlns="http://www.w3.org/2000/svg" version="1.1" viewBox="0 0 180.11 141.73">
  <!-- Generator: Adobe Illustrator 29.3.1, SVG Export Plug-In . SVG Version: 2.1.0 Build 151)  -->
  <path d="M64.5.65c-.83,20.69-13.02,39.67-37,56.88-10.3,7.33-17.87,15.21-22.46,23.67-3.94,7.73-5.8,15.21-4.75,22.86.97,6.92,4.35,13.04,9.34,18.03,5.39,4.99,11.91,8.29,19.88,9.66-19.53-8.65-23.26-26.08-2.98-46.45,1.37-1.37,4.02-3.3,7.57-6.04,4.75-3.46,7.97-5.88,10.38-7.49,3.94-3.38,7.33-6.68,9.9-9.98,3.62-4.19,5.96-8.45,7.57-13.04.8-1.61,1.37-5.15,1.77-10.79.24-5.39.64-11.43,1.05-18.03.16-7.24.16-13.44.16-18.84-.01-.47-.37-1.94-.43-.45" style="fill: #305f9b; fill-rule: evenodd;"/>
  <path d="M63.32,58.74c.4-2.25.64-5.72,1.05-10.3-1.05,8.61-11.35,19.96-31.47,34.45-2.98,1.93-5.72,4.27-7.97,7-3.78,4.03-6.36,7.97-7.97,11.91-1.93,5.15-1.93,9.98,0,14.49,2.25,5.39,7,10.22,14.57,14.65-18.51-13.85-18.27-28.09,1.37-42.58l16.9-12.88c4.19-3.46,7.57-6.44,9.18-8.69,2.01-2.5,3.38-5.15,4.35-8.05" style="fill: #cba85b; fill-rule: evenodd;"/>
  <path d="M81.67,82.97l-.4-5.96c.97-.4,2.01,0,2.58.89,1.42,2.1,1.1,5.4-2.17,5.07M86.26,88.36c1.53,1.29,2.33,2.82,2.58,4.51,0,1.61-.64,3.06-2.01,4.35-1.61,1.53-3.22,1.85-5.15.89v-11.91c.97.81,2.17,1.53,4.59,2.17ZM75.88,67.59v37.27c1.77-1.13,3.78-1.37,5.8-.97l6.52-.24c2.98-.97,4.99-2.66,5.96-5.15,2.66-6.36,1.05-11.35-4.51-14.81,2.98-7.49.16-11.83-8.77-13.04-2.01,0-3.62-1.13-4.99-3.06Z" style="fill: #305f9b; fill-rule: evenodd;"/>
  <path d="M96.16,96.01c-.97,4.75.4,7.49,4.03,8.05.97.08,2.33,0,3.54-.4.81-.16,1.37,0,1.77.4h2.98l.24-15.13-4.03.16c-5.55-1.61-8.53.72-8.53,6.92M104.13,99.07c-.56,1.13-1.37,1.37-2.41.81-.97-.64-1.13-1.77-1.13-3.54,0-.89,0-1.69.16-2.09.4-.89.97-1.37,2.01-1.53.81,0,.97.4,1.37,1.21v5.15Z" style="fill: #305f9b; fill-rule: evenodd;"/>
  <path d="M120.2,127.65c-.8,1.21-1.37,1.61-2.41.97-.97-.72-1.37-1.85-1.37-3.62,0-.89,0-1.53.4-1.93.4-.89.97-1.53,2.01-1.69.56,0,.97.4,1.37,1.29v4.99ZM120.76,117.82c-10.77-3.28-11.79,14.04-4.51,14.97.97.08,2.17-.16,3.54-.48.56-.16,1.37.16,1.61.48h2.98l.28-15.11-3.9.14Z" style="fill: #305f9b; fill-rule: evenodd;"/>
  <path d="M115.64,93.76v9.9h-4.51v-14.73h4.35c0,.32.56.32,1.61,0l3.54-.16c1.77.48,2.41,1.53,2.82,3.06.16,2.41.16,6.28,0,11.83h-4.43v-9.9c.04-.6-.63-1.32-1.67-1.32-1.2.06-1.67.75-1.71,1.32" style="fill: #305f9b; fill-rule: evenodd;"/>
  <path d="M129.57,94.24c.4-.89,1.05-1.37,2.01-1.53.97,0,1.37.4,1.77,1.21v5.15c-.97,1.13-1.77,1.37-2.74.81-1.05-.64-1.21-1.77-1.21-3.54,0-.89,0-1.69.16-2.09M129.01,104.14c1.61.08,2.98,0,3.54-.4,1.05,2.98.4,4.35-1.13,4.35-2.42,0-4.03-.16-4.43-.56v4.27c.4.56,1.45.72,2.98.72l4.02-.16c1.61-.56,2.58-1.69,3.38-3.46l.16-4.02v-15.78h-3.14l-2.01-.16-2.82-.4c-.97.24-1.93,1.13-2.98,2.49-2.21,3.54-3.1,12.23,2.41,13.12Z" style="fill: #305f9b; fill-rule: evenodd;"/>
  <path d="M140.36,103.74h3.94v-6.36c2.58,1.13,4.02,3.22,4.02,6.28h3.94c.64-2.98-.4-5.72-3.38-8.21,2.58-2.9,3.62-4.83,3.38-6.36h-4.35c0,2.33-.64,3.46-2.41,3.62-.97-.16-1.21-.56-1.21-1.53v-13.44l-3.94,3.06v22.94Z" style="fill: #305f9b; fill-rule: evenodd;"/>
  <path d="M172.15,91.18l-.4-13.44-3.94,3.06v22.94h4.35v-6.36c2.58,1.13,4.02,3.22,3.62,6.28h3.94c1.05-2.98,0-5.72-2.98-8.21,2.58-2.9,3.62-4.83,2.98-6.36h-3.94c-.4,2.33-1.05,3.46-2.58,3.62-.8-.16-1.05-.56-1.05-1.53" style="fill: #305f9b; fill-rule: evenodd;"/>
  <path d="M152.91,98.67c.4,4.03,2.33,5.8,5.96,5.39h.4c3.94.4,5.96-1.37,6.12-5.39v-3.86c-.3-8.53-11.72-8.51-12.48,0v3.86ZM159.27,92.87c1.13.08,1.93.89,1.93,2.41v3.46c-.4,1.13-.97,1.85-1.93,1.85-1.05,0-1.85-.72-2.01-1.85v-3.46c0-1.53.56-2.33,2.01-2.41Z" style="fill: #305f9b; fill-rule: evenodd;"/>
  <path d="M55.99,117.1c-2.17,1.13-4.59.8-7.16-.81-.4,3.14,1.61,5.39,6.2,6.6-.24,4.75-3.06,7.89-7.16,9.26,4.91,1.53,8.53.64,10.87-2.74,1.21-1.61,2.01-3.62,2.25-6.36.17-.77.47-1.16.97-1.37,2.88-.58,4.49.52,5.39,2.01v8.61h5.39v-36.31c-1.05,1.69-3.78,3.06-7.41,4.02-5.39,2.17-8.37,7.81-9.34,17.07M67.34,120.56l-5.39-3.46c.97-6.84,2.82-10.95,5.39-12.07v15.54Z" style="fill: #305f9b; fill-rule: evenodd;"/>
  <path d="M79.82,117.5v15.29h-4.51l-.4-13.36c-.24-1.13.4-1.77,1.37-1.93.97-.16,2.42-.16,3.54,0" style="fill: #305f9b; fill-rule: evenodd;"/>
  <path d="M91.72,119.19c.24,1.05.24,2.17,0,3.62-2.33-.64-3.78-.24-4.75,1.05v8.69h-4.99c0-4.91-.16-9.97-.16-14.73h3.94c.34.27.55.42,1.05.48.97-.08,1.93-.4,2.17-.64h1.77c.56.4.97.97.97,1.53" style="fill: #305f9b; fill-rule: evenodd;"/>
  <path d="M93.2,118.87c-.81,7,1.21,11.67,5.96,13.6l2.98-4.59c.23.46,1.98,3.54,2.58,4.59,4.59-1.93,6.6-6.6,5.96-13.6-.4-.4-.4-.81,0-1.21l-1.61-.16h-1.77l-2.01.16.4,1.37c0,2.09-.4,3.14-.97,3.14-.4-1.53-1.37-2.58-2.58-3.14-1.77.56-2.82,1.61-2.98,3.14-.81,0-1.05-1.05-1.05-3.14l.24-1.37-2.01-.16h-1.61l-1.53.16c.16.4.16.81,0,1.21" style="fill: #305f9b; fill-rule: evenodd;"/>
  <path d="M139.56,117.5v19.24c-.16.89-.3,2.31-1.27,3.43-1.13,1.21-1.63.89-3.32,1.31l-6.52.24v-4.11h3.94c.72-.08,1.18-.11,2.01-.89.56-.64.97-1.21.56-1.93-.4-.56-.56-.81-1.53-.97l-1.45-.24-1.53-.4c-1.45-.4-2.42-1.29-3.06-2.58-1.37-1.93-1.77-6.04-1.37-12.32.4-.64.64-.81,1.05-.81h3.54v8.29c0,1.85.97,3.06,2.98,3.54.97-.08,1.37-.89,1.37-2.41v-8.69c.4-.56.64-.72,1.45-.72h3.14Z" style="fill: #305f9b; fill-rule: evenodd;"/>
  <path d="M141.01,132.07c2.29,1.26,4.07,1.49,5.96.97,1.01-.28,2.08-.82,2.98-2.41.97-1.93.26-4.44-1.51-5.78-1.83-1.4-2.92-2.27-1.88-2.67.97-.24,1.77-.24,1.93,0,1.05-.08,1.45-.48,1.45-1.29,0-.72-.4-2.01-.64-3.78-.4.4-.97.72-1.93.72h-3.38c-1.61.08-2.58.81-2.98,1.93-.46,1.01-.61,1.84-.4,3.46.63,1.63,2.65,3.13,3.94,4.43.67.72.4,1.45-.16,1.45-1.05,0-2.41-.4-3.38-1.05v4.02Z" style="fill: #305f9b; fill-rule: evenodd;"/>
  <path d="M80.87,112.83c0,.89-.24,1.53-1.05,2.17-.56.64-1.13.89-2.17.89-.8,0-1.37-.24-1.93-.89-.81-.64-1.05-1.29-1.05-2.17s.24-1.53,1.05-2.17c.56-.64,1.13-.89,1.93-.89,1.05,0,1.61.24,2.17.89.81.64,1.05,1.29,1.05,2.17" style="fill: #305f9b; fill-rule: evenodd;"/>
  <path d="M57.76,71.38c-3.78,3.94-8.77,7.73-14.33,11.19-3.38,2.09-6.52,4.43-9.5,7.08-3.38,2.58-6.04,4.83-7.81,6.76-5.55,6.44-6.92,13.6-3.14,21.65,2.33,6.98,10.31,11.98,17.07,13.44-1.61-.97-3.14-2.25-4.99-3.86-13.3-12.75-8.59-31.92,11.75-31.64,1.61.4,2.58.81,3.22,1.37.97.72,2.74.97,4.75.89,8.94-.81,12.16-13.2,9.18-37.19l-.64,2.33c-1.37,2.58-3.38,5.31-5.55,7.97" style="fill: #e53232; fill-rule: evenodd;"/>
</svg>