<?xml version="1.0" encoding="UTF-8"?>
<svg id="Layer_1" xmlns="http://www.w3.org/2000/svg" version="1.1" viewBox="0 0 524.62 141.73">
  <!-- Generator: Adobe Illustrator 29.3.1, SVG Export Plug-In . SVG Version: 2.1.0 Build 151)  -->
  <path d="M150.4,68.27c-42.22,11.24-42.22,28.94-35.07,28.94,2.38,0,6.81-2.72,13.96-8.51,7.15-6.13,13.96-11.58,21.11-20.43ZM242,51.58c0-3.06,1.36-5.79,4.09-8.51,2.72-2.72,5.45-4.09,8.17-4.09,1.36,0,2.72.34,3.41,1.02.68.68,1.02,2.04,1.02,3.41,0,2.72-1.36,5.45-4.08,8.17-2.72,3.06-5.11,4.43-7.83,4.43-1.36,0-2.72-.34-3.75-1.36-.68-.68-1.02-1.7-1.02-3.06ZM279.11,84.61l5.45,3.07c6.47-4.77,13.28-8.85,16.01-11.24,10.56-9.53-2.38-6.13-6.81-3.06-4.09,3.06-9.53,6.47-14.64,11.24ZM48.24,67.24l-6.47,7.15c-1.7,2.04-3.06,3.75-4.09,5.79-1.02,1.7-1.7,3.41-1.7,4.43,0,2.04,1.36,3.75,4.43,5.11,3.06,1.7,6.47,2.38,10.56,2.38,7.15,0,13.96-1.7,20.77-5.11,6.81-3.41,10.22-6.47,10.22-9.53,0-2.04-3.07-4.09-8.85-5.79-5.79-2.04-13.96-3.41-24.86-4.43ZM142.57,86.99c-8.17,6.47-22.13,18.39-28.26,20.09-5.45-.68-10.22-8.17-12.26-13.62-17.71,12.26-61.97,21.79-75.59,10.9-4.77-3.74-7.83-6.81-7.83-11.24,0-2.73.68-5.11,1.7-7.83,1.02-2.72,3.06-5.79,5.45-8.85l7.83-9.87c-21.11-2.04-9.19-11.92,11.24-11.92,7.15-7.15,14.3-14.3,19.07-17.37,4.77-3.06,8.85-4.43,12.6-4.43.34,0,.68,0,1.02.34.34.34.34.68.34,1.02s0,.68-.34,1.36c-.34.68-.68,1.02-1.36,1.7l-12.6,13.96c11.92-1.7,22.13-4.43,29.62-7.83,7.49-3.41,10.56-7.15,10.56-10.56,0-2.04-1.36-3.75-4.09-4.77-2.72-1.36-6.13-1.7-10.56-1.7-6.13,0-13.28.68-21.11,2.38-7.83,1.36-16,3.75-25.2,6.81,3.07,1.02,3.41,2.72.68,5.11l-18.39,4.77c-2.04.34-13.62,6.13-11.24-2.38,2.04-7.49,10.56-17.71,14.98-20.43,2.04-1.36,4.77-2.72,8.51-3.75,18.39-5.45,53.8-14.3,73.21-3.06,11.58,9.88,2.04,27.24-10.56,31.67-11.24,3.75-24.86,8.51-43.93,10.56l-4.09,3.75c10.56,2.04,61.29,4.43,41.2,27.92-1.02,1.02-2.04,2.38-3.06,3.41,3.74-1.7,7.83-4.09,11.58-8.17.68-1.36,1.36-2.72,2.38-4.09,2.72-3.74,6.13-7.49,10.9-10.56,10.56-7.49,23.49-13.62,36.78-15.32,1.7-.34,6.13.34,7.83,2.04,1.36,1.7,2.04,2.38,2.72,3.75.34.34,0,1.36-.34,1.7-1.02.68-3.4,2.04-4.77,2.72,5.79,3.06,6.13,6.47-2.72,16.34-14.3,19.41,2.72,16.69,17.03,2.38v-.34c3.75-3.75,7.15-7.15,9.87-10.21,2.73-3.07,3.75-4.43,6.13-7.49-4.09-.68-10.9,1.36-12.6,0-.68-1.02,2.04-5.11,4.43-7.83,6.13-8.17,10.56-8.51,20.09-8.85.34-.68,1.7-1.7,2.04-2.72,5.11-11.58,27.24-14.98,11.58,2.38,2.38,0,6.81,1.36,8.17.68.34-.34-1.02,5.11-2.04,6.47-2.04,3.75-5.79,8.51-8.17,9.53-1.02.68-5.45,1.02-7.15,1.02-1.36,0-2.38-.34-3.07-.34s-1.36.34-2.04.34c-4.09,4.77-7.15,9.53-9.53,14.64-2.38,5.11-3.75,9.88-3.75,13.62,0,1.36.34,2.38,1.02,3.06.68.68,1.7,1.02,3.07,1.02,2.04,0,5.11-1.36,9.53-4.09,3.75-2.38,8.86-6.13,14.98-11.24.68-1.36,1.36-3.06,2.04-4.77,6.47-17.71,38.14-29.63,23.49-7.15-3.06,4.77-8.17,8.85-14.3,13.62-.34,1.02-.34,1.7-.68,2.72,0,.68,0,1.36-.34,2.04-1.7,4.77,1.7,7.49,7.15,6.47,2.38-.34,5.79-1.36,9.87-4.09,3.41-2.04,6.81-4.43,10.56-7.83,1.02-3.75,2.72-7.83,4.77-11.92,3.75-7.15,10.22-14.98,19.41-25.2,8.51-9.53,33.71-31.67,40.18-31.33,1.02,0,1.7.34,2.38,1.02.68.68,1.02,1.36,1.02,2.38,0,3.06-7.15,11.24-17.03,23.16-9.87,11.92-25.88,25.54-42.22,42.22v4.77c8.85-8.85,43.93-37.12,48.35-33.37,19.75,17.37-16,30.99-20.77,34.73l-1.36,1.02c7.49,14.64,21.79,1.02,34.73-9.87l1.36,5.45c-8.51,8.51-15.32,14.3-20.77,17.71-7.49,4.77-14.64,7.83-21.45,1.36-2.73-2.72-7.49-7.49-10.56-13.96-4.43,2.04-4.43,3.41-6.13,6.47-5.45,10.9-12.6,9.53-12.6-7.15-4.77,5.11-8.85,8.85-12.6,11.58-4.77,3.41-9.53,5.11-13.28,5.11-4.09,0-7.49-1.7-9.87-4.77-2.38-3.06-3.41-7.49-3.41-12.94-6.13,5.79-11.92,10.22-17.03,13.62-6.47,4.09-11.92,6.47-16,6.47-3.06,0-5.11-.68-6.81-2.38-1.7-1.36-2.38-3.75-2.38-6.47,0-2.38.34-4.77,1.36-7.49,1.02-2.72,2.38-5.79,4.09-8.85-5.79,10.9-54.14,48.01-32.69,1.02Z" style="fill: #be476b;"/>
  <path d="M84.34.5c-7.83,7.49-35.07,47.33-60.27,78.66l-3.75,4.43-.68,3.75c0,.68-32.01,2.04-14.3,41.88-2.04,3.41-3.75,3.41-4.09,12.26.68.34,1.36.34,2.04,0,.34-5.45,1.7-9.53,8.51-14.64,6.13-5.11,24.18-18.73,28.6-35.41.34-1.7,1.02-3.06,1.7-4.77L97.96,9.36s-7.15-11.92-13.62-8.85" style="fill: #f9d627;"/>
  <path d="M90.13,6.63c-7.49,9.19-28.26,40.52-53.46,71.85l-4.43.34c7.15,3.75,5.79,6.13,8.17,12.26.34.68,1.02-3.41,1.7-4.43L97.96,9.36s-2.72-4.77-6.47-7.49c-1.7-1.36,2.04,4.09-1.36,4.77Z" style="fill: #e5b52b;"/>
  <path d="M94.55,10.04c-7.49,9.19-23.84,36.44-49.03,68.1-.34-1.36-.68-2.72-.34-4.43-4.43,3.07-7.49,10.22-4.77,17.71.34-1.7,1.7-3.74,1.7-4.77L97.96,9.36c-.34-.34-.68-3.41-3.41-5.45-1.7-1.36,2.04,4.43,0,6.13" style="fill: #83582e;"/>
  <path d="M24.41,98.91c-1.36,9.19-7.49,12.6-8.85,13.96-.34.34,0,6.13-.68,11.58,5.45-5.79,33.71-30.99,14.3-40.86,8.51,6.81-2.38,14.64-4.77,15.32" style="fill: #83582e;"/>
  <path d="M17.26,108.45c11.92-11.58.34-21.45-7.83-13.96-12.26,11.24-1.7,23.5,7.83,13.96" style="fill: #6b4d30;"/>
  <path d="M404.76,57.71c-18.39,4.77-28.6,11.24-35.41,14.3-16.34,8.17-18.05,35.75,7.49,11.58,7.83-6.81,18.73-16,27.92-25.88M461.28,50.22c-.34-3.06,1.37-5.79,4.09-8.51,2.72-3.06,12.26-6.47,12.94.68.34,2.38-1.36,5.11-3.75,8.17-2.72,3.06-5.11,4.43-7.83,4.43-1.36,0-2.72-.34-3.75-1.36-1.36-1.02-1.7-2.04-1.7-3.41ZM394.54,81.55c-2.72,2.38-30.3,25.2-34.73,24.52-9.19-1.02-19.07-19.07-14.3-27.92,1.7-3.06,3.74-7.49,7.49-11.24,11.92-12.26,33.37-22.13,52.1-26.22,2.04-.34,4.08-.34,6.81-.34,4.77,1.36,9.19,5.11,8.85,8.85,0,.68-.34,1.02-.68,1.36-.34.34-1.36.68-2.38,1.36l-3.07,1.7c3.41,1.02,4.77,3.06,5.11,5.79.68,4.77-5.11,10.56-9.54,16-8.51,10.21-7.49,19.75,5.11,13.62,8.17-3.74,20.09-15.66,27.92-21.45,10.56-11.24,28.61-14.3,18.05,2.72-3.06,4.77-8.85,8.85-14.98,13.62,0,.34-1.36,2.72-1.36,3.06,0,5.45,2.72,8.51,7.83,7.83,4.77-.68,8.86-3.07,12.26-6.13,3.75-3.41,7.15-7.15,10.56-11.58-1.02,0-2.72,0-3.06-1.02-3.75-5.79,3.75-14.64,5.45-16.35.34-.34,11.24-10.9,13.96-5.79.68,1.02-.34,4.09-1.02,5.11,4.43-.34,8.17-1.36,12.94-1.7,2.04-.34,7.83-1.36,8.51-.34,5.45,5.79,5.11,10.9-.68,16-5.45,4.77-8.85,9.19-10.56,12.26-3.41,5.79-.68,10.21,6.13,7.83,4.09-1.36,9.53-6.13,16-11.92l1.37,4.77c-8.17,8.85-16.01,15.32-21.45,19.07-14.3,9.19-21.45-4.77-15.66-16.69,2.04-4.43,5.79-9.53,11.58-14.98-3.4.68-6.47,1.36-8.85,1.7-2.38.34-4.43.68-6.47,1.02-2.04,3.06-3.06,5.11-5.45,7.83-7.15,7.83-13.96,15.66-19.07,19.41-4.77,3.41-9.88,5.79-13.96,5.79-10.56.34-13.28-10.9-12.94-18.73,0-1.02.34-2.04.34-2.72-12.26,11.92-32.69,24.52-36.1,24.18-17.03-2.38-4.08-23.84-2.04-30.31Z" style="fill: #be476b;"/>
  <path d="M86.04,26.38c-5.45.34-11.24,1.02-17.37,2.04-2.38.34-4.77,1.02-7.15,1.36-5.79,1.36-11.58,3.06-18.05,5.11,3.06,1.02,3.41,2.72.68,5.11l-18.39,4.77c-2.04.34-13.62,6.13-11.24-2.38,2.04-7.49,10.56-17.71,14.98-20.43,2.04-1.36,4.77-2.72,8.51-3.75,9.53-2.72,23.5-6.47,37.46-7.83,7.15-.68,14.3-.68,21.11.34l-10.56,15.66Z" style="fill: #be476b;"/>
</svg>