<?xml version="1.0" encoding="UTF-8"?>
<svg id="Layer_1" xmlns="http://www.w3.org/2000/svg" version="1.1" viewBox="0 0 205.65 141.73">
  <!-- Generator: Adobe Illustrator 29.3.1, SVG Export Plug-In . SVG Version: 2.1.0 Build 151)  -->
  <path d="M115.4,8.29c-.59.59-2.66,3.85-2.66,7.69v23.67c0,1.77-.89,4.14-1.77,5.03-.59.59-4.14,3.85-4.73,4.14h2.07c.89-.59,7.99-6.81,8.58-7.69.89-1.18,3.25-3.85,3.25-7.99V10.06c0-3.25,1.48-5.33,2.37-6.21.89-.89,3.55-3.25,4.14-3.55l-2.07-.3c-.59.59-8.28,7.69-9.17,8.29" style="fill: #e1a829; fill-rule: evenodd;"/>
  <path d="M97.94,94.69l8.58,7.69h5.92c5.92,0,11.24-2.66,14.8-6.21,3.55-3.55,4.73-8.28,4.73-12.72v-12.43c0-4.14-2.37-6.51-3.25-7.1-.3-.59-2.96-2.96-2.96-2.96v9.47s2.96,2.96,3.25,3.55c2.66,2.66,2.66,7.69-5.33,15.68-1.48,1.18-5.62,5.03-11.24,5.03h-14.5" style="fill: #e1a829; fill-rule: evenodd;"/>
  <path d="M133.15,51.19s2.07,2.66,2.96,3.25c3.85,2.96,5.62-.3,2.96-3.55-.89-1.48-4.73-.89-5.92.3M121.91,44.09c-.89.89-1.78,3.55-1.78,5.62v4.73h4.73c1.78,0,4.14-1.77,4.73-2.66v-4.44s1.18,1.78,2.66,2.66c.3-.59,4.73-5.92,8.28-5.92,6.21,0,4.73,7.4,2.37,10.06-.89.59-4.44,3.85-5.62,5.03-2.66,2.66-7.69,1.48-7.69-5.62,0,0-5.33,5.03-5.92,5.62-.89.59-3.55,3.55-3.55,3.55v12.13c0,5.92-2.07,7.99-3.55,9.76-.59.59-7.4,6.81-8.29,7.4h-2.07s3.85-3.55,4.73-4.14c.89-1.18,1.77-2.96,1.77-5.92v-19.53h-30.18c-10.65,0-12.72-11.54-13.02-14.79v-11.54c0-2.07-1.18-5.32-2.96-6.21h2.96c.3,0,2.07.89,2.07,7.99v8.88c0,3.55,2.66,7.69,7.1,7.69h34.03c0-.89.89-4.44,2.66-6.21.89-1.18,8.28-7.69,9.17-8.58h2.07c-.3.3-3.85,3.55-4.73,4.44Z" style="fill: #e1a829; fill-rule: evenodd;"/>
  <path d="M96.46,73.09c0,1.78-5.33,6.21-5.62,6.51-.3-1.77-1.48-3.85-5.62-7.69l5.92-5.92c3.85,3.85,5.33,4.73,5.33,7.1" style="fill: #e1a829; fill-rule: evenodd;"/>
  <path d="M86.4,39.06c-1.48,1.78-1.77,2.07-3.25,2.96h18.05c4.73,0,3.85-2.96,2.96-4.44-1.78-3.25-7.4-9.17-7.4-9.17,0,0-10.06,10.36-10.36,10.65M106.52,6.81c1.18,1.18,3.85,4.44,2.07,5.92-1.18,1.18-3.25,3.55-3.25,3.55,0-.89-2.07-2.66-2.07-2.66v6.21c0,2.66-.89,3.25-.89,3.25,0,0,4.73,4.73,4.73,10.65v5.92c0,1.18-.59,2.37-1.18,3.25-.59.3-4.73,4.73-5.62,5.33-1.18,1.18-2.37,1.18-3.55,1.18h-15.98c-2.37,0-5.03-1.78-5.03-3.85v-5.92c.89.89,1.78,2.07,3.55,2.07s3.25-1.48,3.85-1.77c.3-.59,12.13-12.72,12.13-12.72,0,0-5.62-5.03-9.17-7.4-1.78-1.18-4.14.3-4.44,1.77-.89,5.03,0,12.13,0,12.13,0,0-3.55-3.55-4.44-4.44-1.78-1.78-1.78-5.62.59-7.99.3-.3,3.55-3.85,7.69-3.85h6.21c4.44,0,9.17,4.14,9.17,4.14,0,0,.59-.59.59-1.48v-7.99c-3.25-3.25-3.85-6.51-2.07-8.29,2.66-2.66,3.85-3.85,3.85-3.85,0,0,0,3.55,3.26,6.81Z" style="fill: #e1a829; fill-rule: evenodd;"/>
  <path d="M65.98,55.63h-3.25s3.25,1.77,3.25,6.21v14.5c0,9.47,7.69,18.05,17.16,18.05h7.99c4.73,0,6.21-1.18,9.17-3.85.89-.89,2.37-2.37,2.96-2.96,1.48-1.78,3.26-3.25,3.26-7.99v-4.73c0-4.14-2.37-5.92-3.55-7.1-.59-.59-2.66-2.66-2.66-2.66v9.76s2.07,2.07,2.96,2.96c4.14,2.96.89,8.58-2.96,8.58h-17.46c-6.21.3-14.79-5.33-14.79-14.79v-7.99c0-7.99-2.07-7.99-2.07-7.99" style="fill: #e1a829; fill-rule: evenodd;"/>
  <path d="M84.62,73.09c0,1.78-5.33,6.21-5.33,6.51-.59-1.77-1.77-3.85-5.92-7.69l5.92-5.92c3.85,3.85,5.33,4.73,5.33,7.1" style="fill: #e1a829; fill-rule: evenodd;"/>
  <path d="M24.26,137.29h-9.17c-2.96,0-2.66-2.37-2.96-4.44v-13.31h4.44c2.37,0,5.62-.3,8.58,1.48,0,0-2.07-5.62-8.58-5.62h-4.44v-4.14s0-3.55-.89-4.73h6.21c5.03,0,9.17,0,13.61,2.66,0,0-.89-6.81-11.24-6.81H0s3.55,2.96,3.25,8.88l.3,24.26c0,5.92,2.37,6.21,2.37,6.21h19.53c4.44,0,6.21-3.25,6.21-5.03v-2.37s-1.48,2.96-7.4,2.96" style="fill: #e1a829; fill-rule: evenodd;"/>
  <path d="M76.64,135.22v-16.87c0-6.51-5.33-8.29-9.47-8.29-5.03,0-6.81,4.44-7.4,5.92-1.18-4.14-5.33-5.92-8.58-5.92-6.51,0-7.99,5.92-7.99,5.92,0,0-.3-5.62-5.33-5.62h-5.03s2.96,1.18,2.96,6.21v18.64c0,6.21,2.37,6.51,2.37,6.51h8.28c-.3-.3-3.25-2.37-3.25-6.51v-16.57c.3-.89,1.48-3.25,5.03-3.25,2.07,0,4.14,2.07,4.14,4.44v15.39c0,6.21,2.37,6.21,2.37,6.21h8.28s-2.96-2.07-2.96-6.21v-16.57c.3-.89,1.18-3.25,4.44-3.25,2.37,0,4.44,2.07,4.44,4.44v15.39c0,6.51,2.66,6.21,2.66,6.21h8.29s-3.25-2.07-3.25-6.21" style="fill: #e1a829; fill-rule: evenodd;"/>
  <path d="M91.13,135.22c0,4.14,3.25,6.21,3.25,6.21h-8.29s-2.66.3-2.66-6.21v-18.64c0-5.03-2.66-6.21-2.66-6.21h5.03c1.78,0,5.33,0,5.33,6.81v18.05Z" style="fill: #e1a829; fill-rule: evenodd;"/>
  <path d="M116.58,112.73s-.59-2.37-4.14-2.37c-5.33,0-6.51,6.21-6.51,6.21-.3-5.03-1.78-6.51-5.33-6.51h-5.03s2.96,1.18,2.96,6.51v18.64c0,6.21,2.37,6.21,2.37,6.21h8.28c-.3,0-3.25-2.07-3.25-6.21v-15.39c.3-1.48,1.18-2.37,2.07-3.25,2.66-1.78,6.51-1.18,8.58,1.18v-5.03" style="fill: #e1a829; fill-rule: evenodd;"/>
  <path d="M155.34,113.62c2.66,0,4.73,1.48,4.73,1.48v-4.73h-6.81v-7.4s-1.78,3.26-5.62,6.21c-2.37,2.07-7.4,4.44-7.4,4.44h5.33v21.9c0,5.92,2.66,5.92,2.66,5.92h8.28s-3.25-2.07-3.25-5.92v-21.9h2.07" style="fill: #e1a829; fill-rule: evenodd;"/>
  <path d="M175.46,121.32c1.18-2.66,2.37-9.17-2.37-8.88-5.32.59-4.44,15.09-4.44,15.09,1.78-2.07,4.73-2.37,6.81-6.21M180.49,123.09c-4.73,5.03-8.29,4.14-11.24,7.69,0,0,.3,5.03,4.14,6.51,1.18.59,6.51,2.66,9.76-3.25v5.03s-2.07,2.66-8.88,2.66c-8.28,0-13.91-6.51-13.91-15.09s4.73-16.57,13.32-16.57,12.72,6.81,6.81,13.02Z" style="fill: #e1a829; fill-rule: evenodd;"/>
  <path d="M87.29,107.7c2.07,0,3.85-1.77,3.85-3.85s-1.78-3.85-3.85-3.85-3.85,1.78-3.85,3.85,1.78,3.85,3.85,3.85" style="fill: #e1a829; fill-rule: evenodd;"/>
  <path d="M130.19,120.13c-2.07,3.25-16.87,3.85-14.5,15.68.89,4.44,3.85,5.92,7.69,5.92s5.92-2.07,6.81-3.85c.59,3.55,2.37,3.55,2.37,3.55h8.28s-3.25-2.07-3.25-6.21v-17.46c0-4.14-4.73-7.69-9.47-7.69s-7.99,2.37-7.99,2.37v5.62s1.78-4.44,6.21-4.44c4.14,0,4.44,2.07,4.44,3.25,0,0,.3,1.18-.59,3.25M125.16,137.89c-1.78,0-3.25-1.78-3.25-3.85,0-7.69,6.51-8.88,8.28-10.95v13.02c-.89.89-1.48,1.78-5.03,1.78Z" style="fill: #e1a829; fill-rule: evenodd;"/>
  <path d="M198.84,133.15c0,2.07-2.07,5.03-6.21,5.03-4.44,0-5.92-4.44-5.92-4.44v5.62s2.96,2.37,7.69,2.37c5.62,0,11.54-4.44,11.24-10.36,0-2.07-.59-3.85-1.78-5.62-2.07-2.37-5.62-4.14-8.28-5.92-1.48-.89-2.37-2.66-2.37-3.25,0-1.18.59-3.25,4.73-3.25s5.92,4.44,5.92,4.44v-5.33s-3.25-2.37-7.99-2.37c-5.03,0-9.47,3.26-9.47,7.4.3,3.85,1.78,6.21,4.73,8.29,1.18.89,2.66,1.77,4.44,2.66,2.37,1.48,3.25,2.96,3.25,4.73" style="fill: #e1a829; fill-rule: evenodd;"/>
</svg>