<?xml version="1.0" encoding="UTF-8"?>
<svg id="Layer_1" xmlns="http://www.w3.org/2000/svg" version="1.1" viewBox="0 0 290.05 141.73">
  <!-- Generator: Adobe Illustrator 29.3.1, SVG Export Plug-In . SVG Version: 2.1.0 Build 151)  -->
  <polygon points="162.58 9.1 162.22 8.79 158.68 5.23 154.81 9.11 158.68 13 162.58 9.1" style="fill: #b88b28;"/>
  <polygon points="162.58 9.1 162.22 8.79 158.68 5.23 154.81 9.11 158.68 13 162.58 9.1" style="fill: none; stroke: #b88b28; stroke-miterlimit: 2.61; stroke-width: .5px;"/>
  <polygon points="170.34 9.1 170 8.79 166.46 5.23 162.59 9.11 166.46 13 170.34 9.1" style="fill: #b88b28;"/>
  <polygon points="170.34 9.1 170 8.79 166.46 5.23 162.59 9.11 166.46 13 170.34 9.1" style="fill: none; stroke: #b88b28; stroke-miterlimit: 2.61; stroke-width: .5px;"/>
  <path d="M117.53,8.33c.12.85.72,1.16,1.3,1.47.7.37,1.51.71,1.51,1.97v29.6h32.89v.61c-.03.14-.04.39-.04.79,0,2.34.83,3.97,2.3,4.56.03.02.75.42,1.82.42.84,0,1.65-.25,2.35-.72l.56-.35-.53-.43c-.96-.72-1.28-2.87-1.27-4.49v-.4h12.26V14.16s-1.64,3.64-7.55,7.91c0,0,.21,1.18,1.24,1.74,1.53.84,1.41,1.64,1.41,1.64v10.92h-7.32c0-.16,0-.36,0-.58v-.5c-.03-2.76-.87-9.17-8.25-9.17-2.12.07-4.25.11-6.37.12h-.41c-4.38,0-6.68-.48-7.23-1.53l-.25-.46-.41.29c-.8.51-1.26,1.49-1.26,2.69.02,1.76.98,3.71,2.73,3.84,1.1.05,2.68.07,4.28.07,2.85,0,5.68-.05,5.69-.05,6.1.04,6.2,2.62,6.24,3.86v1.41h-27.91V.2s-3.29,4.36-7.82,7.69v.17c.02.07.02.14.03.28Z" style="fill: #b88b28;"/>
  <path d="M117.53,8.33c.12.85.72,1.16,1.3,1.47.7.37,1.51.71,1.51,1.97v29.6h32.89v.61c-.03.14-.04.39-.04.79,0,2.34.83,3.97,2.3,4.56.03.02.75.42,1.82.42.84,0,1.65-.25,2.35-.72l.56-.35-.53-.43c-.96-.72-1.28-2.87-1.27-4.49v-.4h12.26V14.16s-1.64,3.64-7.55,7.91c0,0,.21,1.18,1.24,1.74,1.53.84,1.41,1.64,1.41,1.64v10.92h-7.32c0-.16,0-.36,0-.58v-.5c-.03-2.76-.87-9.17-8.25-9.17-2.12.07-4.25.11-6.37.12h-.41c-4.38,0-6.68-.48-7.23-1.53l-.25-.46-.41.29c-.8.51-1.26,1.49-1.26,2.69.02,1.76.98,3.71,2.73,3.84,1.1.05,2.68.07,4.28.07,2.85,0,5.68-.05,5.69-.05,6.1.04,6.2,2.62,6.24,3.86v1.41h-27.91V.2s-3.29,4.36-7.82,7.69v.17c.02.07.02.14.03.28Z" style="fill: none; stroke: #b88b28; stroke-miterlimit: 2.61; stroke-width: .5px;"/>
  <path d="M98.57,45.48s-.53,4.33,8.52,4.33c7.36,0,7.6-4.57,7.6-4.61l.02-17.01c0-.97-.27-4.13-3.28-4.16h-25.67v-1.85c0-.41.39-.58.69-.77,1.5-.93,1.75-1.75,1.28-2.06-3.03-1.74-6.01-5.46-6.01-5.46v14.82h25.71s.12-.01.26-.01c.8.02,1.87.23,1.89,1.88v11.87c0,.1-.03,2.57-2.57,2.57-4.07,0-3.8-2.07-3.82-2.07v-6.68s-21.47,0-21.47,0v5.08h16.86v4.11h0Z" style="fill: #b88b28;"/>
  <path d="M98.57,45.48s-.53,4.33,8.52,4.33c7.36,0,7.6-4.57,7.6-4.61l.02-17.01c0-.97-.27-4.13-3.28-4.16h-25.67v-1.85c0-.41.39-.58.69-.77,1.5-.93,1.75-1.75,1.28-2.06-3.03-1.74-6.01-5.46-6.01-5.46v14.82h25.71s.12-.01.26-.01c.8.02,1.87.23,1.89,1.88v11.87c0,.1-.03,2.57-2.57,2.57-4.07,0-3.8-2.07-3.82-2.07v-6.68s-21.47,0-21.47,0v5.08h16.86v4.11h0Z" style="fill: none; stroke: #b88b28; stroke-miterlimit: 2.61; stroke-width: .5px;"/>
  <path d="M188.24,46.72l-3.47,3.51-3.51-3.51,3.51-3.51,3.47,3.51ZM219.17,99.47v1.26h13.19l-34.96-36.83-5.1,5.34,5.66,6.01,5.85,5.89h-9.88l-5.42,5.67,1.17.8,1.28-.69c.11-.06.23-.09.36-.11.31-.02.62-.03.93-.02h16.9s11.66,12.47,11.66,12.47c0,0-.18.21-1.19.21h-.45ZM202.89,128.13l-4.91-9.49h-4.84l7.36,13.3v9.25h4.38v-9.25l7.4-13.3h-4.35l-5.04,9.49ZM230.46,127.87l-.83-.2c-1.37-.33-2.29-.71-2.77-1.14-.47-.43-.71-1.07-.71-1.91,0-.93.29-1.61.86-2.06.58-.44,1.5-.66,2.79-.66,1.22,0,2.36.23,3.42.7,1.06.47,1.9.99,2.52,1.56v-4.58c-1.39-.97-3.32-1.46-5.78-1.46-2.58,0-4.57.61-5.95,1.84-1.38,1.23-2.07,2.95-2.07,5.16,0,3.39,1.9,5.54,5.71,6.47l.83.2c1.35.31,2.29.69,2.84,1.14.54.45.81,1.09.81,1.91,0,2.1-1.36,3.15-4.08,3.15-2.19,0-4.15-.77-5.87-2.32v4.58c1.44.99,3.35,1.49,5.74,1.49,2.81,0,4.92-.67,6.34-2.02,1.42-1.35,2.12-3.17,2.12-5.47,0-1.79-.48-3.18-1.43-4.16-.95-.99-2.44-1.72-4.48-2.21ZM176.35,46.72l8.42,8.41,8.38-8.41-5.21-5.22,6.28-6.64V.02s-2.34,5.32-6.43,7.98v.28c.09.81.57,1.12,1.03,1.43.57.37,1.1.71,1.15,2.01.06.96,0,20.98,0,20.98l-5.2,5.42-5.22-5.42c0-.32-.07-20.07,0-20.98.05-1.3.58-1.64,1.14-2.01.46-.3.94-.61,1.03-1.45v-.4c-3.7-2.6-6.44-7.82-6.44-7.82v35.32l6.27,6.17-5.2,5.21h0ZM289.39,78.31c-1.39-4.41-4.58-8.02-9.48-10.74-4.41-2.47-10.68-3.67-19.14-3.67h-32.31v1.05s1.35.9,1.4.9c0,0,0,0,.01,0v3.83s30.85,0,30.85,0c6.24,0,10.8.83,13.57,2.45,4.41,2.57,6.55,5.91,6.57,10.21,0,2.16-.58,4.13-1.72,5.86-1.13,1.72-2.85,3.2-5.14,4.39-2.99,1.55-7.54,2.33-13.54,2.33h-16.09v-22.6h-8.8v25.94s-.05.38-.05.38c-.05.07-.15.16-.23.24l-1.08.68-.1.07v1.05h26.39c5.08,0,9.07-.29,11.86-.86,3.83-.8,7.23-2.19,10.1-4.14,2.94-1.97,5.03-4.26,6.24-6.79.9-1.85,1.35-3.9,1.35-6.08,0-1.52-.22-3.04-.66-4.5M205.61,11.52c.07-1.26.72-1.6,1.42-1.97.58-.3,1.18-.62,1.3-1.49v-.42c.01-.48-.35-.64-.8-.83-.44-.2-1.29-.73-2.86-2.07-2.63-2.28-3.28-3.32-3.28-3.34l-.88-1.41v41.37h5.1s-.09-28.89,0-29.84" style="fill: #b88b28;"/>
  <path d="M188.24,46.72l-3.47,3.51-3.51-3.51,3.51-3.51,3.47,3.51ZM219.17,99.47v1.26h13.19l-34.96-36.83-5.1,5.34,5.66,6.01,5.85,5.89h-9.88l-5.42,5.67,1.17.8,1.28-.69c.11-.06.23-.09.36-.11.31-.02.62-.03.93-.02h16.9s11.66,12.47,11.66,12.47c0,0-.18.21-1.19.21h-.45ZM202.89,128.13l-4.91-9.49h-4.84l7.36,13.3v9.25h4.38v-9.25l7.4-13.3h-4.35l-5.04,9.49ZM230.46,127.87l-.83-.2c-1.37-.33-2.29-.71-2.77-1.14-.47-.43-.71-1.07-.71-1.91,0-.93.29-1.61.86-2.06.58-.44,1.5-.66,2.79-.66,1.22,0,2.36.23,3.42.7,1.06.47,1.9.99,2.52,1.56v-4.58c-1.39-.97-3.32-1.46-5.78-1.46-2.58,0-4.57.61-5.95,1.84-1.38,1.23-2.07,2.95-2.07,5.16,0,3.39,1.9,5.54,5.71,6.47l.83.2c1.35.31,2.29.69,2.84,1.14.54.45.81,1.09.81,1.91,0,2.1-1.36,3.15-4.08,3.15-2.19,0-4.15-.77-5.87-2.32v4.58c1.44.99,3.35,1.49,5.74,1.49,2.81,0,4.92-.67,6.34-2.02,1.42-1.35,2.12-3.17,2.12-5.47,0-1.79-.48-3.18-1.43-4.16-.95-.99-2.44-1.72-4.48-2.21ZM176.35,46.72l8.42,8.41,8.38-8.41-5.21-5.22,6.28-6.64V.02s-2.34,5.32-6.43,7.98v.28c.09.81.57,1.12,1.03,1.43.57.37,1.1.71,1.15,2.01.06.96,0,20.98,0,20.98l-5.2,5.42-5.22-5.42c0-.32-.07-20.07,0-20.98.05-1.3.58-1.64,1.14-2.01.46-.3.94-.61,1.03-1.45v-.4c-3.7-2.6-6.44-7.82-6.44-7.82v35.32l6.27,6.17-5.2,5.21h0ZM289.39,78.31c-1.39-4.41-4.58-8.02-9.48-10.74-4.41-2.47-10.68-3.67-19.14-3.67h-32.31v1.05s1.35.9,1.4.9c0,0,0,0,.01,0v3.83s30.85,0,30.85,0c6.24,0,10.8.83,13.57,2.45,4.41,2.57,6.55,5.91,6.57,10.21,0,2.16-.58,4.13-1.72,5.86-1.13,1.72-2.85,3.2-5.14,4.39-2.99,1.55-7.54,2.33-13.54,2.33h-16.09v-22.6h-8.8v25.94s-.05.38-.05.38c-.05.07-.15.16-.23.24l-1.08.68-.1.07v1.05h26.39c5.08,0,9.07-.29,11.86-.86,3.83-.8,7.23-2.19,10.1-4.14,2.94-1.97,5.03-4.26,6.24-6.79.9-1.85,1.35-3.9,1.35-6.08,0-1.52-.22-3.04-.66-4.5M205.61,11.52c.07-1.26.72-1.6,1.42-1.97.58-.3,1.18-.62,1.3-1.49v-.42c.01-.48-.35-.64-.8-.83-.44-.2-1.29-.73-2.86-2.07-2.63-2.28-3.28-3.32-3.28-3.34l-.88-1.41v41.37h5.1s-.09-28.89,0-29.84" style="fill: none; stroke: #b88b28; stroke-miterlimit: 2.61; stroke-width: .5px;"/>
  <path d="M161.53,65.01l1.22.78c.35.21.38.36.38.48v10.8h-23.8l-5.37,6.81v-17.57l.03-.34c.08-.08.18-.14.28-.19l1.13-.71.12-.06v-1.07h-11.87v1.06l1.17.76c.17.12.25.19.28.19h0s0,32.29,0,32.29l-.06.42c-.06.09-.14.16-.22.22l-1.18.79v1.04h11.87v-1.05l-1.24-.79c-.19-.1-.28-.17-.31-.17h0s0-14.81,0-14.81l1.28.39,1.65-.95c.3-.18.56-.31.75-.35.1-.04.3-.08.67-.08h24.79v11.36l8.86-9.5v-18.8c0-.14.18-.29.18-.29l1.28-.64v-1.08h-11.89v1.06h0Z" style="fill: #b88b28;"/>
  <path d="M161.53,65.01l1.22.78c.35.21.38.36.38.48v10.8h-23.8l-5.37,6.81v-17.57l.03-.34c.08-.08.18-.14.28-.19l1.13-.71.12-.06v-1.07h-11.87v1.06l1.17.76c.17.12.25.19.28.19h0s0,32.29,0,32.29l-.06.42c-.06.09-.14.16-.22.22l-1.18.79v1.04h11.87v-1.05l-1.24-.79c-.19-.1-.28-.17-.31-.17h0s0-14.81,0-14.81l1.28.39,1.65-.95c.3-.18.56-.31.75-.35.1-.04.3-.08.67-.08h24.79v11.36l8.86-9.5v-18.8c0-.14.18-.29.18-.29l1.28-.64v-1.08h-11.89v1.06h0Z" style="fill: none; stroke: #b88b28; stroke-miterlimit: 2.61; stroke-width: .5px;"/>
  <path d="M189.93,70.67l-28.66,29.95h13.19v-1.26h-.46c-.22,0-.42-.03-.61-.06-.17-.02-.33-.07-.49-.14l22.15-23.03-5.12-5.46h0Z" style="fill: #b88b28;"/>
  <path d="M189.93,70.67l-28.66,29.95h13.19v-1.26h-.46c-.22,0-.42-.03-.61-.06-.17-.02-.33-.07-.49-.14l22.15-23.03-5.12-5.46h0Z" style="fill: none; stroke: #b88b28; stroke-miterlimit: 2.61; stroke-width: .5px;"/>
  <path d="M118.27,65.73l1.08-.72v-1.07h-11.78v1.06l1.18.76c.28.19.41.36.41.51v31.92s-.07.41-.07.41c-.1.09-.21.18-.32.26l-1.2.77v1.07h11.78v-1.06l-1.09-.77c-.15-.1-.24-.17-.27-.17,0,0-.01,0-.01,0v-32.4s.03-.35.03-.35l.27-.25Z" style="fill: #b88b28;"/>
  <path d="M118.27,65.73l1.08-.72v-1.07h-11.78v1.06l1.18.76c.28.19.41.36.41.51v31.92s-.07.41-.07.41c-.1.09-.21.18-.32.26l-1.2.77v1.07h11.78v-1.06l-1.09-.77c-.15-.1-.24-.17-.27-.17,0,0-.01,0-.01,0v-32.4s.03-.35.03-.35l.27-.25Z" style="fill: none; stroke: #b88b28; stroke-miterlimit: 2.61; stroke-width: .5px;"/>
  <path d="M59.96,93.61h-.48l-1.31.03-1.55.89c-.41.26-.64.34-.69.36l-26.37.07c-6.02,0-10.6-.78-13.61-2.32-4.54-2.36-6.75-5.72-6.76-10.28,0-2.05.59-4,1.75-5.78,2.28-3.35,5.55-5.63,10.25-6.5,1.07-.18,2.15-.28,3.23-.28h13.58c.81-.04.69.16.71.25l-.15.95h1.13l5.82-7.03h-16.22c-3.75,0-6.68.12-8.71.36-1.07.14-2.09.31-3.09.55-2.7.62-5.29,1.63-7.7,3-3.97,2.25-6.81,5.11-8.44,8.51C.45,78.32-.01,80.48,0,82.8c0,5.93,3.18,10.66,9.49,14.06,2.84,1.56,6.04,2.64,9.51,3.21,2.59.42,6.16.64,10.6.64h24.53l5.84-7.1h0Z" style="fill: #b88b28;"/>
  <path d="M59.96,93.61h-.48l-1.31.03-1.55.89c-.41.26-.64.34-.69.36l-26.37.07c-6.02,0-10.6-.78-13.61-2.32-4.54-2.36-6.75-5.72-6.76-10.28,0-2.05.59-4,1.75-5.78,2.28-3.35,5.55-5.63,10.25-6.5,1.07-.18,2.15-.28,3.23-.28h13.58c.81-.04.69.16.71.25l-.15.95h1.13l5.82-7.03h-16.22c-3.75,0-6.68.12-8.71.36-1.07.14-2.09.31-3.09.55-2.7.62-5.29,1.63-7.7,3-3.97,2.25-6.81,5.11-8.44,8.51C.45,78.32-.01,80.48,0,82.8c0,5.93,3.18,10.66,9.49,14.06,2.84,1.56,6.04,2.64,9.51,3.21,2.59.42,6.16.64,10.6.64h24.53l5.84-7.1h0Z" style="fill: none; stroke: #b88b28; stroke-miterlimit: 2.61; stroke-width: .5px;"/>
  <path d="M46.48,84.8l5.71-7.14H13.75l-3.87,5.77h34.66c.65.07.88.23.9.34l-.14,1.02h1.19Z" style="fill: #b88b28;"/>
  <path d="M46.48,84.8l5.71-7.14H13.75l-3.87,5.77h34.66c.65.07.88.23.9.34l-.14,1.02h1.19Z" style="fill: none; stroke: #b88b28; stroke-miterlimit: 2.61; stroke-width: .5px;"/>
  <path d="M49.47,63.94l-5.36,6.72,1.09.38.15.04,1.67-.84c.41-.29.9-.45,1.4-.46h21.24v28.46s-.09.4-.09.4c-.07.09-.16.16-.26.21l-1.21.8v1.05h11.87v-1.07l-1.23-.75-.3-.27c-.01-.1-.01-.2,0-.31v-28.53h18.84c.72.08.82.25.81.27v1h1.06l5.84-7.12h-55.53Z" style="fill: #b88b28;"/>
  <path d="M49.47,63.94l-5.36,6.72,1.09.38.15.04,1.67-.84c.41-.29.9-.45,1.4-.46h21.24v28.46s-.09.4-.09.4c-.07.09-.16.16-.26.21l-1.21.8v1.05h11.87v-1.07l-1.23-.75-.3-.27c-.01-.1-.01-.2,0-.31v-28.53h18.84c.72.08.82.25.81.27v1h1.06l5.84-7.12h-55.53Z" style="fill: none; stroke: #b88b28; stroke-miterlimit: 2.61; stroke-width: .5px;"/>
  <polygon points="62.64 118.64 53.68 141.2 57.9 141.2 63.21 127.1 63.83 125.15 64.46 127.1 66.82 133.31 60.88 133.31 62.14 136.52 68.01 136.52 69.81 141.2 74.38 141.2 65.53 118.64 62.64 118.64" style="fill: #b88b28;"/>
  <polygon points="62.64 118.64 53.68 141.2 57.9 141.2 63.21 127.1 63.83 125.15 64.46 127.1 66.82 133.31 60.88 133.31 62.14 136.52 68.01 136.52 69.81 141.2 74.38 141.2 65.53 118.64 62.64 118.64" style="fill: none; stroke: #b88b28; stroke-miterlimit: 2.61; stroke-width: .5px;"/>
  <rect x="85.5" y="118.64" width="4.38" height="22.56" style="fill: #b88b28;"/>
  <rect x="85.5" y="118.64" width="4.38" height="22.56" style="fill: none; stroke: #b88b28; stroke-miterlimit: 2.61; stroke-width: .5px;"/>
  <path d="M110.54,130.72h-2.85v-8.59h2.82c1.35,0,2.31.35,2.89,1.06.58.71.86,1.74.86,3.08,0,2.96-1.24,4.45-3.71,4.45ZM114.12,133.21c1.41-.53,2.6-1.52,3.38-2.8.8-1.29,1.2-2.81,1.2-4.56,0-2.39-.7-4.19-2.09-5.39-1.39-1.21-3.42-1.81-6.07-1.81h-7.23v22.56h4.38v-7.4h2.49l5.17,7.4h4.91l-6.14-8h0Z" style="fill: #b88b28;"/>
  <path d="M110.54,130.72h-2.85v-8.59h2.82c1.35,0,2.31.35,2.89,1.06.58.71.86,1.74.86,3.08,0,2.96-1.24,4.45-3.71,4.45ZM114.12,133.21c1.41-.53,2.6-1.52,3.38-2.8.8-1.29,1.2-2.81,1.2-4.56,0-2.39-.7-4.19-2.09-5.39-1.39-1.21-3.42-1.81-6.07-1.81h-7.23v22.56h4.38v-7.4h2.49l5.17,7.4h4.91l-6.14-8h0Z" style="fill: none; stroke: #b88b28; stroke-miterlimit: 2.61; stroke-width: .5px;"/>
  <polygon points="154.53 118.64 150.35 134.7 150.21 134.7 145.01 118.64 140.69 118.64 141.85 122.23 137.84 134.7 137.67 134.7 133.53 118.64 128.98 118.64 135.65 141.2 139.2 141.2 143.78 127.24 148.32 141.2 152.01 141.2 158.84 118.64 154.53 118.64" style="fill: #b88b28;"/>
  <polygon points="154.53 118.64 150.35 134.7 150.21 134.7 145.01 118.64 140.69 118.64 141.85 122.23 137.84 134.7 137.67 134.7 133.53 118.64 128.98 118.64 135.65 141.2 139.2 141.2 143.78 127.24 148.32 141.2 152.01 141.2 158.84 118.64 154.53 118.64" style="fill: none; stroke: #b88b28; stroke-miterlimit: 2.61; stroke-width: .5px;"/>
  <polygon points="175.06 118.64 166.1 141.2 170.32 141.2 175.62 127.1 176.25 125.15 176.88 127.1 179.24 133.31 173.3 133.31 174.56 136.52 180.43 136.52 182.23 141.2 186.8 141.2 177.94 118.64 175.06 118.64" style="fill: #b88b28;"/>
  <polygon points="175.06 118.64 166.1 141.2 170.32 141.2 175.62 127.1 176.25 125.15 176.88 127.1 179.24 133.31 173.3 133.31 174.56 136.52 180.43 136.52 182.23 141.2 186.8 141.2 177.94 118.64 175.06 118.64" style="fill: none; stroke: #b88b28; stroke-miterlimit: 2.61; stroke-width: .5px;"/>
</svg>