<?xml version="1.0" encoding="UTF-8"?>
<svg id="Layer_1" xmlns="http://www.w3.org/2000/svg" version="1.1" viewBox="0 0 695.89 141.73">
  <!-- Generator: Adobe Illustrator 29.3.1, SVG Export Plug-In . SVG Version: 2.1.0 Build 151)  -->
  <path d="M681.98,38.39c-7.66,0-13.92,6.26-13.92,14.04s6.26,14.15,13.92,14.15,13.92-6.26,13.92-14.15-6.15-14.04-13.92-14.04ZM49.87,0C35.83,0,15.19,2.9,15.19,17.28v12.99H0v7.42h15.19v77.36h12.64V37.69h19.95v-7.42h-19.95v-11.37c0-11.02,12.76-12.76,22.04-12.76,15.31,0,22.85,1.16,22.85,18.09v90.82h12.64V2.09h-12.53c-7.08,0-10.56-2.09-22.96-2.09ZM170.26,30.27v63.44c0,5.8-2.55,14.61-25.86,14.61s-25.86-8.7-25.86-14.61V30.27h-13.22v64.14c0,15.66,12.87,22.62,36.88,22.62,12.29,0,21.23-2.09,28.07-3.94v28.65h12.87l-.12-111.46h-12.76Z" style="fill: #ff8100;"/>
  <path d="M377.52,91.63c0,5.8-1.86,14.61-19.14,14.61s-19.14-8.7-19.14-14.61v-58.46h-23.08v64.14c0,15.66,16.01,22.62,40.01,22.62,21.23,0,34.91-6.5,41.64-7.31l2.9-.35V33.06h-23.08v58.57h-.12ZM468.22,31.08c-10.55,0-17.05,1.74-25.52,5.1V4.87h-23.08v107.63c10.09,0,24.36,7.42,43.96,7.42,32.13,0,46.63-12.41,46.63-44.42s-9.86-44.42-41.99-44.42ZM463.58,105.2c-9.51,0-19.37-4.99-20.07-14.15-.58-6.96-.81-11.25-.81-15.54s.35-8.12.81-15.54c.7-9.16,9.05-14.15,21.11-14.15,18.44,0,22.5,9.05,22.5,29.69,0,20.64-2.9,29.69-23.54,29.69ZM652.87,55.32h-6.73c-93.48,0-123.87,17.51-123.87,37.58,0,18.67,15.89,26.79,41.52,26.79,16.59,0,33.29-7.19,42.1-7.19v-45.12c10.9-1.39,19.14-1.62,19.14-1.62v52.19h23.08v-39.32c0-14.03,4.76-23.31,4.76-23.31ZM583.39,90.93c0,12.06-11.25,15.19-18.91,15.19-13.11,0-19.83-3.94-19.83-12.53,0-14.5,18.32-21.92,38.74-23.2v20.53ZM648,33.06h-23.08v13.92h23.08v-13.92ZM273.48,36.19c-8.47-3.36-14.96-5.1-25.52-5.1-32.13,0-41.99,12.29-41.99,44.42s14.38,44.42,46.63,44.42c19.6,0,33.87-7.42,43.96-7.42V4.87h-23.08v31.32ZM272.67,91.05c-.7,9.16-10.55,14.15-20.07,14.15-20.65,0-23.54-9.05-23.54-29.69s4.06-29.69,22.5-29.69c11.95,0,20.3,4.99,21.11,14.15.58,7.42.93,11.25.93,15.54-.12,4.41-.35,8.58-.93,15.54ZM580.61,49.41c9.86-1.16,18.67-1.74,24.24-1.74-3.02-11.95-17.05-16.59-40.13-16.59-19.95,0-37.81,6.96-37.81,6.96v16.59s12.29-9.97,38.16-9.97c8.47,0,13.11,1.51,15.54,4.76Z" style="fill: #006495;"/>
</svg>