<?xml version="1.0" encoding="UTF-8"?>
<svg id="Layer_1" xmlns="http://www.w3.org/2000/svg" version="1.1" viewBox="0 0 515.52 141.73">
  <!-- Generator: Adobe Illustrator 29.3.1, SVG Export Plug-In . SVG Version: 2.1.0 Build 151)  -->
  <path d="M385.13,80.39c-.74,10.28-2.84,17.47-9.14,25.09-8.67,10.46-22.57,16.77-38.77,17.02-23.68.36-44.59-15.63-49.68-39.84-2.87-13.66-.56-26.61,5.18-37.32,2.66-4.96,6.35-9.34,9.76-12.59,4.04-3.84,7.28-6.15,13.22-9.13,10.37-5.19,26.28-5.65,37.58-1.6,13.03,4.67,22.39,15.23,27.04,17.82l6.99-7.3c1.28-1.51,1.88-2.12,3.42-3.63,1.17-1.15,1.99-2.36,3.14-3.47-2.14-2.69-5.45-5.39-8.28-7.89-8.58-7.58-20.12-13.65-32.22-15.98-19.92-3.84-38.49-.51-53.2,8.48-12.16,7.43-23.75,19.36-29.96,34.7-6.76,16.68-6.36,37.79.71,54.16,11.35,26.3,43.56,50.6,84.16,40.47,8.31-2.08,16.42-5.73,22.45-10.04,25.63-18.33,28.84-36.12,28.76-67.93l-68.18.15v18.84s47.02-.01,47.02-.01Z" style="fill: #17479d; fill-rule: evenodd;"/>
  <path d="M200.85,2.83c0,25.21,0,50.42,0,75.63,0,12.33-.12,23.08-5.92,32.09-4.62,7.18-12.6,13.07-25.45,12.23-35.03-2.31-36.24-57.57-1.36-61.31,8.08-.87,15.62,1.84,22.39,5.36,1.59.82,4.75,3.12,5.81,3.26v-20.08c-3.98-3.06-13.15-5.7-19.34-6.51-40.65-5.33-64.45,34.65-48.4,70.39,17.34,38.61,78.87,37.56,89.96-9.89,1.81-7.78,1.58-16.01,1.58-24.37V2.35s-19.28.48-19.28.48Z" style="fill: #17479d; fill-rule: evenodd;"/>
  <path d="M417.78,97.27c1.44,15.34,8.75,25.62,16.62,32.16,9.17,7.61,20.76,13.02,36.94,11.53,7.17-.66,13.71-2.65,19.05-5.73,5.13-2.96,10.43-6.9,13.5-10.81,3.66-4.66,6.67-8.48,9.07-15.61,4.2-12.44,3.36-29.22-3.24-40.61-3.43-5.92-6.7-9.16-11.03-13.25-3.35-3.16-9.83-7.17-15.52-9.16-25.66-8.97-54.18,4-63.05,29.73-2.27,6.58-3.03,14.34-2.33,21.75M495.19,97.27c-1.87,15.81-15.42,28.11-33.92,25.24-15.9-2.47-25.96-16.99-23.54-36.04,4.73-37.08,62.68-33.23,57.45,10.8Z" style="fill: #17479d; fill-rule: evenodd;"/>
  <path d="M50.42,139.19c.53-16.27.04-33.39.04-49.76,0-8.68.18-14.18,5-19.96,6.45-7.74,16.97-10.98,26.37-5.64,2.34,1.33,5.24,3.97,6.63,5.93,4.75,6.7,4.72,10.5,4.72,20.07,0,16.39.19,32.89-.01,49.35h19.21c-.08-11.34,0-22.72,0-34.07,0-10.1.86-23.53-1.43-32.78-9.55-38.57-68.02-39.74-78.07-.01-2.29,9.03-1.42,22.92-1.42,32.8,0,11.22-.32,22.93.04,34.09h18.93Z" style="fill: #17479d; fill-rule: evenodd;"/>
  <polygon points=".03 139.2 20.17 139.19 20.17 2.35 0 2.35 .03 139.2" style="fill: #17479d; fill-rule: evenodd;"/>
  <path d="M233.07,139.19l19.31-.18.02-93.76c-1.98-.62-16.82-.53-19.31-.14v94.08Z" style="fill: #17479d; fill-rule: evenodd;"/>
  <path d="M239.45,14.34c-12.92,3.01-10.06,25.53,6.52,21.84,5.45-1.21,9.48-7.03,7.8-13.8-1.37-5.44-7.01-9.75-14.32-8.04" style="fill: #17479d; fill-rule: evenodd;"/>
  <path d="M498.5,39.55v-15.43h3.08l3.65,10.92c.34,1.02.59,1.78.74,2.28.18-.56.45-1.39.82-2.47l3.69-10.73h2.75v15.43h-1.97v-12.92l-4.49,12.92h-1.84l-4.47-13.13v13.13h-1.96ZM489.33,39.55v-13.61h-5.09v-1.82h12.23v1.82h-5.11v13.61h-2.04Z" style="fill: #17479d;"/>
</svg>