<?xml version="1.0" encoding="UTF-8"?>
<svg id="Layer_1" xmlns="http://www.w3.org/2000/svg" version="1.1" viewBox="0 0 738.92 141.73">
  <!-- Generator: Adobe Illustrator 29.3.1, SVG Export Plug-In . SVG Version: 2.1.0 Build 151)  -->
  <path d="M187.11,70.69l-1.28,2.89h-37.3c-8.58,0-11.77,5.46-13.14,9.39-1.37,3.92-4.48,13.19-5.85,17.79-1.36,4.61.51,8.36,6.7,8.36h29.45l-4.66,4.66h-47.88c-4.78,0-8.58-1.71-8.58-5.51s8.07-22.74,8.07-27.18-3.12-7.68-8.75-7.68-13.53,3.41-16.94,13.31c-3.41,9.9-11.38,32.88-13.06,37.93-1.68,5.05,0,12.12,8.08,12.12h52.19l-4.38,4.96h-56.27c-10.48,0-32.05.38-46.93-19.26-14.88-19.64-2.86-32.98-11.81-44.24C10.02,72.23,0,73.39,0,73.39l1.21-2.7h185.9Z" style="fill: #034ea1; fill-rule: evenodd;"/>
  <path d="M180.69,0l3.1,4.16h-51.85c-6.53,0-14.85,4.1-17.41,11.6-2.56,7.51-12.15,34.85-14.55,41.73-2.56,7.34,2.05,10.12,7.85,10.12,13.82,0,17.45-17.96,20.53-26.89,3.07-8.92,7.73-12.29,15.58-12.29h48.22l.85,3.92h-25.82c-10.8,0-13.7,5.8-14.89,9.05-1.19,3.24-3.92,10.46-5.97,16.6-2.05,6.14-.17,9.77,6.31,9.77h35.76l-1.28,2.91H1.21l1.3-2.9c11.25,0,14.76-1.82,21.9-6.77,10.82-7.51,18.33-27.98,38.16-40.74C72.64,13.81,90.35,0,120.22,0h60.47Z" style="fill: #ec1c24;"/>
  <polygon points="296.14 91.82 290.69 106.44 273.04 106.44 296.14 91.82" style="fill: #ec1c24;"/>
  <polygon points="470.49 92.26 465.2 106.44 448.08 106.44 470.49 92.26" style="fill: #ec1c24;"/>
  <polygon points="620.53 92.14 615.37 106.44 597.92 106.44 620.53 92.14" style="fill: #ec1c24;"/>
  <path d="M713.78,57.78h0l2.63-7.1h-35.64l5.71-15.65h36.49c12.72,0,17.7,8.95,15.41,15.61-2.29,6.66-20.65,55.8-20.65,55.8h-45.19c-7.66,0-16.87-6.48-12.89-17.12,3.5-9.37,4.92-12.73,6.06-15.83,4.13-11.23,18.3-15.75,26.96-15.75s21.11.04,21.11.04M687.69,73.44h0l-6.42,17.35h20.3l6.42-17.35h-20.3ZM511.11,35.03h21.64s-1.41,4.1-5.31,15.65c-1.14,3.36-4.37,10.25-8.89,15.66-5.11,6.13-14.02,16.98-15.81,19.03-1.79,2.05-1.34,5.33,2.75,5.33h21.49l20.6-55.68h21.78s-22.43,60.8-26.42,71.39c-7.55,20.02-23.74,22.7-31.07,22.7h-36.06l5.32-15.65h31.73c2.82,0,6.43-1.62,7.59-4.35.65-1.54,1.09-2.68,1.09-2.68h-28.11c-10.61,0-15.32-8.22-15.32-13.44s3.03-10.77,9.09-17c6.06-6.23,10.36-11.72,13.05-14.75,2.69-3.03,5.1-8.4,5.8-10.56l5.05-15.65ZM461.26,57.78h0l2.63-7.1h-35.64l5.71-15.65h36.49c12.72,0,17.7,8.95,15.41,15.61-1.37,3.97-8.45,23.07-13.95,37.83l-28.39,17.96h-23.5c-7.66,0-16.87-6.48-12.89-17.12,3.5-9.37,4.92-12.73,6.06-15.83,4.13-11.23,18.3-15.75,26.96-15.75s21.11.04,21.11.04ZM435.16,73.44h0l-6.42,17.35h20.3l6.42-17.35h-20.3ZM358.9,57.78h0l2.63-7.1h-35.64l5.71-15.65h36.48c12.72,0,17.7,8.95,15.41,15.61-2.29,6.66-20.65,55.8-20.65,55.8h-45.19c-7.66,0-16.87-6.48-12.89-17.12,3.5-9.37,4.92-12.73,6.06-15.83,4.13-11.23,18.3-15.75,26.96-15.75s21.11.04,21.11.04ZM332.8,73.44h0l-6.42,17.35h20.3l6.42-17.35h-20.3ZM311.33,50.64h0c-1.35,3.93-8.31,22.7-13.79,37.39l-28.74,18.19,20.55-55.54h-15.48l-20.63,55.75h-21.95l20.63-55.75h-15.48l-20.63,55.75h-21.95l26.42-71.41h75.64c12.72,0,17.7,8.95,15.41,15.61ZM656.93,16.6h21.93l-5.08,13.72h-21.93l5.08-13.72ZM672.04,35.03h0l-26.43,71.41h-21.93l26.42-71.41h21.93ZM404.87,16.4h21.51l-33.32,90.04h-21.51l33.32-90.04ZM592.77,57.43h19.14c12.72,0,17.7,8.95,15.41,15.61-.95,2.77-3.18,9.01-5.45,15.36l-28.52,18.05h-43.59l5.91-15.65h40.64c1.22,0,2.42.49,3.52-2,.58-1.31,4.6-12.13,4.95-13.05.45-1.19-.16-2.3-1.63-2.3h-19.49c-12.72,0-17.7-8.95-15.41-15.61.6-1.75,1.71-4.87,3.01-8.53,4.89-10.16,17.7-14.26,25.98-14.26h38.28l-5.52,15.65h-33.69c-2.93,0-3.63.45-4.2,1.56-.33.65-1.2,2.64-1.53,3.57-.26.73.23,1.61,2.19,1.61Z" style="fill: #034ea1;"/>
  <polygon points="569.38 110.89 577.92 110.89 569.58 128.25 561.04 128.25 569.38 110.89" style="fill: #231f20;"/>
  <polygon points="630.52 110.89 639.06 110.89 630.72 128.25 622.18 128.25 630.52 110.89" style="fill: #231f20;"/>
  <path d="M532.06,128.25h0l17.37-17.37h8.44l.95,17.37h-8.16l-.07-2.42h-8.03l-2.36,2.42h-8.16ZM550.48,121.47l-.1-3.65-3.56,3.65h3.66Z" style="fill: #231f20;"/>
  <polygon points="609.15 110.89 617.7 110.89 611.45 123.89 623.1 123.89 621.01 128.25 600.82 128.25 609.15 110.89" style="fill: #231f20;"/>
  <polygon points="659.81 110.89 668.35 110.89 660.02 128.25 652.36 128.25 647.59 120.42 643.82 128.25 635.28 128.25 643.62 110.89 651.05 110.89 655.94 118.95 659.81 110.89" style="fill: #231f20;"/>
  <polygon points="674.67 123.89 686.82 123.89 684.73 128.25 664.03 128.25 672.37 110.89 693.06 110.89 690.97 115.25 678.81 115.25 677.79 117.39 688.37 117.39 686.17 121.75 675.69 121.75 674.67 123.89" style="fill: #231f20;"/>
  <path d="M706.82,116.49h8.39s1.88-5.6-7.52-5.94c-8.48-.31-13.47,3.03-14.29,5.77-1.05,3.5,1.71,4.81,7.13,5.59,2.38.35,3.37.76,3.06,1.57-.26.7-1.4.96-2.62.96-3.06,0-2.8-2.01-2.8-2.01h-8.35s.09.96.09,1.92,1.01,4.46,9.14,4.46c10.49,0,13.18-3.85,13.9-5.77,2.58-6.9-10.84-4.63-9.7-7.17.32-.72.44-1.05,1.75-.96,2.53.17,1.84,1.57,1.84,1.57" style="fill: #231f20; fill-rule: evenodd;"/>
  <path d="M582.27,110.89h14.2c4.88,0,8.44,1.7,6.06,6.02-.93,1.68-1.45,1.95-4.39,3.13,0,0,2.46,1,1.03,3.86l-2.19,4.36h-8.42s1.26-2.85,1.94-4.11c.67-1.26.42-2.02-.76-2.02h-4.32l-2.94,6.13h-8.54l8.34-17.37ZM588.68,115.31l-1.37,2.86h4.19c2.19,0,4.04-2.86,1.35-2.86h-4.16Z" style="fill: #231f20;"/>
</svg>