<?xml version="1.0" encoding="UTF-8"?>
<svg id="Layer_1" xmlns="http://www.w3.org/2000/svg" version="1.1" viewBox="0 0 525.65 141.73">
  <!-- Generator: Adobe Illustrator 29.3.1, SVG Export Plug-In . SVG Version: 2.1.0 Build 151)  -->
  <path d="M416.2,120.7c.29-2.52,1.9-5.9,5.57-5.9,4.08,0,5.07,3.59,5.03,5.9h-10.6ZM430.18,123.3c.04-.37.12-.95.12-1.69,0-3.67-1.73-9.4-8.25-9.4-5.81,0-9.36,4.74-9.36,10.76s3.67,10.1,9.81,10.1c3.18,0,5.36-.7,6.64-1.28l-.62-2.6c-1.36.58-2.93,1.03-5.53,1.03-3.63,0-6.76-2.02-6.85-6.93h14.02Z" style="fill: #d01349; fill-rule: evenodd;"/>
  <rect x="404.41" y="103.34" width="3.63" height="29.28" style="fill: #d01349;"/>
  <path d="M384.53,121.07c0-.5.12-1.03.25-1.48.7-2.72,3.01-4.49,5.48-4.49,3.84,0,5.94,3.42,5.94,7.42,0,4.58-2.23,7.71-6.06,7.71-2.6,0-4.78-1.73-5.44-4.25-.08-.45-.16-.95-.16-1.48v-3.42ZM380.94,140.78h3.59v-10.85h.08c1.2,1.98,3.51,3.13,6.14,3.13,4.7,0,9.07-3.55,9.07-10.72,0-6.06-3.63-10.15-8.45-10.15-3.26,0-5.61,1.44-7.09,3.88h-.08l-.16-3.42h-3.26c.08,1.9.17,3.96.17,6.52v21.61Z" style="fill: #d01349; fill-rule: evenodd;"/>
  <path d="M346.55,132.62h3.55v-12.04c0-.62.08-1.24.29-1.77.58-1.81,2.23-3.63,4.49-3.63,2.76,0,4.17,2.31,4.17,5.48v11.96h3.55v-12.33c0-.66.12-1.32.29-1.81.62-1.77,2.23-3.3,4.29-3.3,2.93,0,4.33,2.31,4.33,6.14v11.3h3.55v-11.75c0-6.93-3.92-8.66-6.56-8.66-1.89,0-3.21.5-4.41,1.4-.82.62-1.61,1.48-2.23,2.6h-.08c-.87-2.35-2.93-4-5.65-4-3.3,0-5.15,1.77-6.27,3.67h-.12l-.17-3.22h-3.17c.12,1.65.16,3.34.16,5.4v14.56Z" style="fill: #d01349; fill-rule: evenodd;"/>
  <path d="M338.71,104.78c-1.32,0-2.27.99-2.27,2.27,0,1.24.91,2.23,2.19,2.23,1.44,0,2.35-.99,2.31-2.23,0-1.28-.87-2.27-2.23-2.27Z" style="fill: #d01349; fill-rule: evenodd;"/>
  <rect x="336.9" y="112.66" width="3.63" height="19.96" style="fill: #d01349;"/>
  <path d="M319.17,131.67c1.4.82,3.42,1.4,5.61,1.4,4.74,0,7.46-2.51,7.46-6.02,0-2.97-1.77-4.7-5.24-6.02-2.6-.99-3.79-1.73-3.79-3.38,0-1.48,1.2-2.72,3.34-2.72,1.86,0,3.3.66,4.08,1.15l.91-2.64c-1.11-.66-2.89-1.24-4.91-1.24-4.29,0-6.89,2.64-6.89,5.86,0,2.39,1.69,4.37,5.28,5.65,2.68.99,3.71,1.94,3.71,3.67s-1.24,2.97-3.88,2.97c-1.81,0-3.71-.74-4.78-1.44l-.91,2.76Z" style="fill: #d01349; fill-rule: evenodd;"/>
  <path d="M293.23,120.7c.29-2.52,1.9-5.9,5.57-5.9,4.08,0,5.07,3.59,5.03,5.9h-10.6ZM307.21,123.3c.04-.37.12-.95.12-1.69,0-3.67-1.73-9.4-8.25-9.4-5.81,0-9.36,4.74-9.36,10.76s3.67,10.1,9.81,10.1c3.18,0,5.36-.7,6.64-1.28l-.62-2.6c-1.36.58-2.93,1.03-5.53,1.03-3.63,0-6.76-2.02-6.84-6.93h14.02Z" style="fill: #d01349; fill-rule: evenodd;"/>
  <path d="M281.52,124.25c0,.58-.04,1.07-.17,1.57-.66,2.72-2.89,4.33-5.32,4.33-3.92,0-5.9-3.34-5.9-7.38,0-4.41,2.23-7.71,5.98-7.71,2.72,0,4.7,1.9,5.24,4.21.13.45.17,1.07.17,1.53v3.46ZM281.52,103.34v11.92h-.08c-.91-1.61-2.97-3.05-6.02-3.05-4.87,0-8.99,4.08-8.95,10.72,0,6.06,3.71,10.14,8.54,10.14,3.26,0,5.69-1.69,6.81-3.92h.08l.16,3.46h3.26c-.13-1.36-.17-3.38-.17-5.16v-24.12h-3.63Z" style="fill: #d01349; fill-rule: evenodd;"/>
  <path d="M258.55,125.9c0,.37-.08.78-.21,1.15-.58,1.69-2.23,3.34-4.83,3.34-1.85,0-3.42-1.11-3.42-3.46,0-3.88,4.49-4.58,8.45-4.49v3.46ZM262.05,120.37c0-4-1.48-8.16-7.59-8.16-2.51,0-4.91.7-6.56,1.77l.82,2.39c1.4-.91,3.34-1.48,5.2-1.48,4.08,0,4.54,2.97,4.54,4.62v.41c-7.71-.04-12,2.6-12,7.42,0,2.89,2.06,5.73,6.1,5.73,2.85,0,4.99-1.4,6.1-2.97h.13l.29,2.52h3.3c-.25-1.36-.33-3.05-.33-4.78v-7.47Z" style="fill: #d01349; fill-rule: evenodd;"/>
  <path d="M213.64,132.62h3.55v-12.04c0-.62.08-1.24.29-1.77.58-1.81,2.23-3.63,4.5-3.63,2.76,0,4.16,2.31,4.16,5.48v11.96h3.55v-12.33c0-.66.12-1.32.29-1.81.62-1.77,2.23-3.3,4.29-3.3,2.93,0,4.33,2.31,4.33,6.14v11.3h3.55v-11.75c0-6.93-3.92-8.66-6.56-8.66-1.9,0-3.22.5-4.41,1.4-.83.62-1.61,1.48-2.23,2.6h-.08c-.87-2.35-2.93-4-5.65-4-3.3,0-5.16,1.77-6.27,3.67h-.12l-.16-3.22h-3.17c.12,1.65.16,3.34.16,5.4v14.56Z" style="fill: #d01349; fill-rule: evenodd;"/>
  <path d="M195.29,124.12c0,.62-.08,1.32-.29,1.94-.78,2.31-2.8,3.71-5.03,3.71-3.92,0-5.9-3.26-5.9-7.17,0-4.62,2.48-7.55,5.94-7.55,2.64,0,4.41,1.73,5.07,3.84.17.49.21,1.03.21,1.65v3.59ZM198.87,118.15c0-2.43.08-4.04.16-5.49h-3.17l-.16,3.01h-.08c-.87-1.65-2.76-3.46-6.23-3.46-4.58,0-8.99,3.84-8.99,10.6,0,5.53,3.55,9.73,8.5,9.73,3.09,0,5.24-1.48,6.35-3.34h.08v2.23c0,5.03-2.72,6.97-6.43,6.97-2.47,0-4.54-.74-5.86-1.57l-.91,2.76c1.61,1.07,4.25,1.65,6.64,1.65,2.52,0,5.32-.58,7.26-2.39,1.94-1.73,2.84-4.54,2.84-9.11v-11.59Z" style="fill: #d01349; fill-rule: evenodd;"/>
  <path d="M158.96,132.62h3.63v-12c0-.62.08-1.24.25-1.69.62-2.02,2.47-3.71,4.86-3.71,3.42,0,4.62,2.68,4.62,5.9v11.51h3.63v-11.92c0-6.85-4.29-8.5-7.05-8.5-3.3,0-5.61,1.86-6.6,3.75h-.08l-.21-3.3h-3.22c.12,1.65.17,3.34.17,5.4v14.56Z" style="fill: #d01349; fill-rule: evenodd;"/>
  <path d="M151.12,104.78c-1.32,0-2.27.99-2.27,2.27s.91,2.23,2.18,2.23c1.44,0,2.35-.99,2.31-2.23,0-1.28-.87-2.27-2.23-2.27Z" style="fill: #d01349; fill-rule: evenodd;"/>
  <rect x="149.31" y="112.66" width="3.63" height="19.96" style="fill: #d01349;"/>
  <path d="M127.24,112.66l7.38,18.39c.16.45.25.74.25.95s-.12.49-.29.87c-.83,1.86-2.06,3.26-3.05,4.04-1.07.91-2.27,1.48-3.18,1.77l.91,3.05c.91-.16,2.68-.78,4.45-2.35,2.47-2.14,4.25-5.65,6.85-12.5l5.44-14.23h-3.84l-3.96,11.71c-.5,1.44-.91,2.97-1.28,4.17h-.08c-.33-1.2-.83-2.76-1.28-4.08l-4.37-11.79h-3.96Z" style="fill: #d01349; fill-rule: evenodd;"/>
  <path d="M112.27,132.62v-17.2h4.66v-2.76h-4.66v-.99c0-3.22,1.24-5.98,5.03-5.98,1.4,0,2.35.21,2.97.54v26.39h3.59v-28.41c-1.48-.83-3.67-1.32-5.98-1.32-2.76,0-4.83.7-6.39,2.02-1.86,1.65-2.81,4.12-2.81,6.89v.87h-2.8v2.76h2.8v17.2h3.59Z" style="fill: #d01349; fill-rule: evenodd;"/>
  <path d="M368.61,59.36c-2.19,1.91-4.16,4.31-5.75,6.27-3.76,4.63-2.03,5.79,2.64,3.42,1.09-.55,2.12-1.23,3.11-1.98,7.97-6.13,12.32-17.57.65-8.25-.22.17-.44.36-.65.54M348.06,33.93c-1.01-1.27-1.65-2.62-1.65-3.49,0-1.77.67-3.09,1.65-3.98.19-.16.39-.32.59-.46.17-.1.36-.21.54-.29,3.26-1.58,8.24.38,8.24,6.47,0,2.27-1.98,5.03-3.88,5.03-1.57,0-3.11-.89-4.36-2.06-.18-.16-.37-.36-.54-.53-.2-.2-.4-.44-.59-.69ZM327.45,68.27c-.46,1.44-.72,2.64-.72,3.46,0,1.33.25,2.62.72,3.84.19.54.44,1.07.72,1.56.21.41.45.79.71,1.16,1.88,2.7,4.7,4.52,7.32,4.52,10.71,0,4.06-7.09,4.06-12.48,0-4.11,5.11-9.3,7.81-14.78.22-.44.42-.87.59-1.3.21-.5.39-.98.54-1.47.34-1.08.52-2.16.52-3.25,0-.42-.2-.77-.52-1.09-.15-.15-.33-.28-.54-.42-.17-.13-.37-.26-.59-.39-.43-.27-.92-.57-1.46-.9-3.68-2.43-5.65-2.68-8.38.88-3.08,4-6.97,11.15-9.35,16.85-.26.62-.5,1.22-.71,1.8-.28.71-.52,1.39-.72,2.02ZM285.82,33.24c-.71-1.06-1.15-2.1-1.15-2.81,0-1.44.44-2.61,1.15-3.47.21-.25.45-.49.7-.69.66-.52,1.44-.87,2.25-1.02,3.14-.56,6.9,1.62,6.9,6.92,0,2.27-1.98,5.03-3.87,5.03-1.05,0-2.09-.39-3.03-.99-.84-.57-1.6-1.27-2.25-2.04-.25-.3-.5-.62-.7-.93ZM285.82,68.87c-.46,1.42-.71,2.93-.71,4.59,0,1.27.26,2.41.71,3.45.19.44.44.88.7,1.28.61.86,1.36,1.63,2.25,2.26,2.18,1.58,5.11,2.41,8.11,2.41,7.86,0,24.63-18.44,30.57-29.87.25-.5.49-.98.72-1.44.28-.61.5-1.18.71-1.74.46-1.24.72-2.33.72-3.21,0-1.09-.27-2.02-.72-2.77-.21-.34-.43-.64-.71-.9-.23-.22-.46-.4-.72-.57-1.15-.76-2.66-1.13-4.4-1.13-4.21,0-4.99,3.24-5.82,6.18-2.03,7.23-8.91,14.67-14.02,18.85-2.5,2.06-2.7,2.36-1.04-.62l3.87-6.94c2.02-3.1,5.82-14.57-2.62-13.43l-5.23,1.35c-3.07,1.75-2.21,1.84-3.09,5.14-1.16,4.37-3.98,7.73-6.33,11.31-.84,1.28-1.6,2.58-2.25,3.98-.26.61-.51,1.21-.7,1.84ZM270.73,56.89c-3.13,5.91-5.75,12.25-5.75,14.84,0,4.24,2.62,8.13,5.75,9.97,1.19.72,2.48,1.12,3.71,1.12.76,0,1.43-.03,2.03-.11,7.79-.89,2.03-7.36,2.03-12.37,0-3.86,4.53-8.69,7.33-13.81.25-.48.5-.94.7-1.41.86-1.83,1.44-3.7,1.44-5.59,0-.73-.58-1.22-1.44-1.78h0s-.7-.44-.7-.44c-.31-.2-.64-.38-.97-.59-3.68-2.43-5.65-2.68-8.38.88-1.78,2.32-3.86,5.72-5.74,9.29ZM237.07,69.86c-.54.74-1.1,1.45-1.67,2.11-3.65,4.25-6.85,3.29-4.97-2.8,1.26-4.12,3.62-8.15,6.64-11.26.15-.17.31-.3.44-.45,1.17-1.15,2.32-2.12,3.35-2.79,2.83-1.84,4.59-1.35,2.44,4.13-.64,1.65-1.47,3.41-2.44,5.13-1.14,2.06-2.42,4.1-3.79,5.93ZM150.97,55.92c1.08-.62,2.2-1.18,3.34-1.64,5.67-2.29,9.07-3.02,3.6,2.73-2.02,2.13-4.41,4.25-6.94,6.06-1.54,1.11-3.14,2.1-4.75,2.9-4.95,2.52-6.78,1.29-2.79-3.61,2.04-2.53,4.66-4.76,7.54-6.45ZM237.07,1.99c-10.27,5.53-27.59,32.85-29.43,35.96-4.87,8.13-17.09,25.67-27.5,31.77-6.65,3.89-9.01-.98-3.85-8.6,3.24-4.8,7.44-5.72,7.44-7.91,0-6.08-5.65-7.15-9.45-4.82-1.49.91-2.3.94-4.94,3.33-1.85-4.08-6.63-6.94-11.83-6.94-1.73,0-4.02.82-6.54,2.24-9.8,5.42-23.35,19.38-23.92,26.2-4.43,0-9.39.53-10.64-5.18-1.64-7.64,4.34-21.3,5.28-24.04,1.52-4.34,2.5-7.78-1.72-10.54-7.81-5.1-19.29,6.7-25.71,11.28-4.19,2.99-7.67,5.57-8.86,6.49-4.29,3.32-14.4,12.1-22.07,16.52-6.68,3.85-7.58,3.08-4.92-4.14,3.06-8.32,9.17-17.25,9.17-23.75,0-18.16-16.22-2.4-22.7-.6,4.19-6.14,14.63-23.02,19.08-28.78,2.55-3.32,3.67-7.24.67-9.18-1.41-.9-2.66-1.29-3.81-1.3h-.13c-2.76.04-4.91,2.29-7.1,4.87C39.78,21.13,0,85.73,0,92.56c0,1.72,2.19,2.69,4.45,3.31,5.3,1.46,8.16-1.05,10.98-5.69,8.09-13.31,16.34-30.41,31.07-40.01,7.46-4.84,6.8-3.02,3.68,4.36-1.59,3.76-3.33,6.97-4.43,11.35-3.83,15.25,8.24,21.13,20.19,13.49,10.04-6.4,25.53-20.03,34.84-26.75,6.68-4.85,4.5-1.51,3.78,5.04-1.13,10.27.51,20.79,9.06,24.31,7.25,3,19.73.88,27-1.06,4.08-1.11,7.45-2.51,10.35-3.87,3.38-1.56,6.11-3.06,8.53-3.9,3.07,11.82,11.47,10.57,19.21,5.39,7.04-4.68,15.91-11.85,18.64-13.72-.03,18.79,8.34,21.52,21.63,14.28,2.91,2.01,4.49,4.16,9.45,4.16h2.7c1.32,0,3.57-.81,5.95-1.89,1.27-.56,2.57-1.2,3.79-1.84.71-.39,1.42-.76,2.05-1.12,3.54-2.01,3.69-1.61,7.17.83,15.88,11.08,9.12-3.87,9.07-10.39-.07-8.86,1.94-17.8,5.36-26.62.57-1.5,3.09-7.31,6.21-13.47,1.79-3.54,3.8-7.22,5.74-10.24,3.7-5.75,7.19-9.16,8.71-5.01.2.54.4,1.03.64,1.43.22.41.46.76.7,1.06.72.83,1.5,1.15,2.25,1.1,2.38-.13,4.59-3.93,4.1-7.41-.34-2.43-1.85-4.86-4.1-6.53-.68-.5-1.44-.94-2.25-1.29-.23-.09-.46-.18-.7-.27-1.04-.34-2.16-.55-3.33-.55-2.07,0-4.09.8-6.02,2.18-1.99,1.45-3.91,3.52-5.74,6.01h0s0,0,0,0c-8.45,11.5-15,32-19.32,40.35-3.04-2.07-4.76-5.54-8.11-5.54-.73,0-1.55.18-2.44.54-1.16.46-2.45,1.21-3.79,2.16-7.85,5.56-17.84,18.26-19.11,23.91-14.21,5.16-7.01-11.77-4.24-18.98,4.43-11.51,12.03-24.56,19.94-28.61.77-.4,2.04-1.28,3.41-2.4,1.24-1.01,2.59-2.22,3.79-3.49,2.1-2.22,3.77-4.62,3.77-6.41,0-6.45-1.44-9.27-3.77-9.66-1.09-.18-2.36.16-3.79.91ZM349.19,67.04c3.72-8.54,12.76-17.91,19.42-20.5,1.17-.45,2.27-.69,3.24-.68,6.15.04,7.04,3.01,10.78,5.62,1.66-.95,3.19-3.59,5.8-3.58,2.8.02,6.72,4.1,6.72,5.58,0,2.99-3.12,5.31-4.34,7.83-1.8,3.62-1.29,6.22.01,9.19,2.09,4.81,5.11,2.87,8.36.76,10.62-6.86,23.26-20.49,28.36-24.7,3.85-3.14,9.06.31,9.02,5.34-.02,5.69-2.43,7.09-3.59,12.15-1.61,7.05.75,6.34,5.82,3.59,19.85-10.7,31.15-27.5,47.23-13.78,6.62,5.66,11.01,8.85,19.38,12.35,2.04.85,9.44,4.95,16.56,7.2,2.17.71,3.34,1.82,3.7,3.03v1.7c-.84,3.13-6.24,6-13.09,3.57-10.91-3.88-21.53-11.08-30.77-17.54-5.73-4.04-7.16-4.9-13.72-1.93-7.62,3.48-18.15,12.82-27.56,17.41-4.57,2.24-8.29,4.24-13.16,1.25-4.2-2.58-7.12-6.49-7.1-12.47.02-3.58.99-4.96-2.29-2.44-8.37,6.48-29.13,23.68-35.19,14.06-.87-1.35-1.74-2.97-2.6-4.26-2.22-3.36-3.1-1.29-5.91.67-2.06,1.43-3.79,2.61-5.64,3.49-2.79,1.33-5.83,2-10.62,1.97-4.59-.04-7.28-.92-8.8-2.66-.2-.22-.38-.45-.54-.7-.21-.37-.42-.75-.59-1.16-.09-.26-.17-.51-.25-.79-.54-1.9-.41-4.12.25-6.47.17-.59.38-1.18.59-1.78.16-.44.34-.88.54-1.32Z" style="fill: #d01349; fill-rule: evenodd;"/>
</svg>