<?xml version="1.0" encoding="UTF-8"?>
<svg id="Layer_1" xmlns="http://www.w3.org/2000/svg" version="1.1" viewBox="0 0 502.13 141.73">
  <!-- Generator: Adobe Illustrator 29.3.1, SVG Export Plug-In . SVG Version: 2.1.0 Build 151)  -->
  <path d="M206.86,130.32c-.16,1.66-.2,2.13-.79,3.91,1.26.63,3.51,1.78,6.48,1.78,6.36,0,8.8-4.07,8.8-7.58,0-.99-.24-3-1.7-4.58-.99-1.11-2.05-1.5-4.7-2.53-3.04-1.18-4.82-1.86-4.82-4.38,0-2.05,1.34-3.75,4.11-3.75,2.17,0,4.03,1.03,4.54,3h.47c.32-1.3.39-1.58,1.07-3.28-1.7-.75-3.24-1.42-5.76-1.42-6.28,0-8.09,3.87-8.09,6.95,0,2.88,1.03,4.66,4.38,6.16.99.43,2.61,1.03,3.55,1.46.67.28,2.84,1.22,2.84,3.99,0,2.49-1.82,4.34-4.54,4.34-2.05,0-3.79-.51-5.37-3.99h-.47v-.08ZM196.48,126.21c0-.32.2-.67.43-1.1,1.46-2.49,2.8-5.09,4.38-7.58.51-.83,3.04-4.86,3.59-5.8-.4.16-.75.2-1.46.2-.67,0-1.34-.08-2.01-.2-2.49,5.49-3.04,6.67-6,11.73-2.96-5.17-4.26-7.9-6.08-11.73-.95.16-1.9.24-2.84.2-.75,0-1.58-.08-2.84-.2,1.82,3,4.74,7.82,6.52,10.86l2.05,3.55c0,2.17-.12,6.67-.2,9.4.67-.08,1.62-.2,2.33-.2.79,0,1.62.12,2.41.2-.16-3.24-.24-5.09-.24-8.02l-.04-1.3ZM181.95,135.49c.63-.04,1.62-.2,2.57-.2s2.17.16,2.68.2c-1.54-3.36-3.83-8.61-5.17-11.61-1.26-2.92-3.32-7.78-4.98-12.52-.39.12-.71.16-1.1.16s-.79-.08-1.14-.16c-.83,2.84-2.84,7.34-6.36,15.2l-4.03,8.92c.47-.08.99-.2,1.58-.2.55,0,1.22.12,1.66.2.55-1.97,1.66-4.86,2.76-7.5,1.38-.08,2.76-.12,4.15-.16,1.5,0,2.96.08,4.42.16l1.46,3.67,1.5,3.83ZM178,125.82c-1.07.08-2.13.12-3.2.12-1.22,0-2.41-.12-3.59-.12l3.51-8.53,3.28,8.53ZM143.01,127.4c-1.62-4.82-3.87-11.57-4.98-15.68-.87.12-1.62.2-2.41.2-.83,0-2.01-.12-2.72-.2,1.42,3.75,2.65,7.07,3.59,9.71,1.58,4.5,2.65,7.62,3.87,11.45l.87,2.65c.47-.12,1.03-.2,1.42-.2s.71.08,1.3.2c.55-1.82,1.22-4.03,1.7-5.45,1.34-3.95,1.54-4.5,3.28-9.44l1.03-2.88c.39,1.11,1.03,2.88,1.42,3.99.39,1.07,2.17,6.4,2.57,7.58.55,1.54.71,2.01,1.97,6.2.32-.04.99-.2,1.5-.2.47,0,.87.12,1.38.2,1.3-4.11,1.46-4.54,3.4-10.11,1.9-5.41,3.08-8.49,5.17-13.7-1.03.28-2.13.28-3.16,0-1.26,4.5-1.86,6.71-2.88,9.67-1.62,4.86-1.86,5.41-2.84,8.06-1.11-3-2.17-6-3.2-9.04-.55-1.66-2.69-8.61-2.69-8.69-.47.12-.83.2-1.54.2-.63,0-1.07-.12-1.54-.2-1.03,4.22-4.7,14.41-5.05,15.36l-.87,2.25-.59-1.93ZM119.28,113.58c.51-.04,1.82-.2,2.45-.2,1.14,0,2.29.16,3.24.87,1.22.91,1.46,2.13,1.46,3.59,0,2.25-1.26,4.78-4.74,4.78-.91,0-1.74-.08-2.41-.12v-8.92ZM124.97,123.73c3.16-.59,6.04-2.57,6.04-6.4,0-1.46-.55-2.88-1.58-3.87-1.5-1.42-3.2-1.7-5.45-1.7-.79,0-4.82.16-5.72.16-1.78,0-2.68-.12-3.47-.16.24,4.46.24,4.98.24,9.52,0,6.67-.04,7.46-.32,14.29.75-.12,1.58-.2,2.37-.2.87,0,1.62.12,2.33.2,0-.91-.16-5.37-.16-6.4v-4.94h.83c1.86,2.65,4.03,5.69,5.8,8.41.51.79,1.3,2.09,1.82,2.88,1.03-.16,1.46-.2,2.8-.2,1.26,0,2.13.12,3.08.2-2.17-2.72-3.12-3.95-5.84-7.78-.51-.71-1.3-1.86-1.82-2.61l-.95-1.42ZM104.36,119.74c0,5.92,0,11.65-.4,15.76.75-.04,1.74-.2,2.49-.2.79,0,1.62.16,2.45.2-.28-2.8-.36-6.55-.36-11.73,0-3.51,0-9.52.4-12.08-.83.12-1.7.2-2.45.2-.51,0-1.82-.16-2.45-.2.32,3.4.32,5.84.32,8.06M96.03,135.49c.63-.04,1.58-.2,2.57-.2s2.17.16,2.72.2c-1.58-3.36-3.87-8.61-5.17-11.61-1.26-2.92-3.32-7.78-4.98-12.52-.35.12-.75.16-1.1.16-.43,0-.75-.08-1.14-.16-.83,2.84-2.84,7.34-6.36,15.2l-4.03,8.92c.47-.08.99-.2,1.54-.2s1.22.12,1.66.2c.55-1.97,1.66-4.86,2.76-7.5,1.38-.08,2.76-.12,4.15-.16,1.5,0,2.96.08,4.46.16l1.46,3.67,1.46,3.83ZM92.12,125.82c-1.07.08-2.13.12-3.2.12-1.22,0-2.41-.12-3.59-.12l3.55-8.53,3.24,8.53Z" style="fill: #505967;"/>
  <path d="M294.36,34.09c1.54-.12,5.41-.51,7.38-.51,3.44,0,6.87.51,9.67,2.61,3.63,2.72,4.38,6.44,4.38,10.82,0,6.75-3.83,14.37-14.25,14.37-2.72,0-5.21-.2-7.19-.32v-26.97ZM311.42,64.46c9.48-1.78,18.08-7.7,18.08-19.23,0-4.38-1.66-8.65-4.78-11.65-4.5-4.27-9.6-5.13-16.35-5.13-2.41,0-14.45.51-17.18.51-5.29,0-8.02-.32-10.39-.51.71,13.43.71,14.89.71,28.51,0,20.1-.12,22.35-.95,42.84,2.29-.32,4.78-.63,7.19-.63,2.61,0,4.9.43,6.95.63,0-2.72-.39-16.11-.39-19.15v-14.77h2.49c5.61,7.9,12.08,17.06,17.37,25.27,1.54,2.41,3.83,6.24,5.41,8.65,3.12-.39,4.38-.63,8.41-.63,3.75,0,6.36.32,9.28.63-6.55-8.21-9.36-11.85-17.57-23.42-1.58-2.17-3.83-5.61-5.41-7.82l-2.88-4.11ZM253.69,99.84c1.86-.12,4.78-.63,7.7-.63s6.55.51,8.13.63c-4.7-10.11-11.53-25.78-15.52-34.87-3.75-8.73-9.99-23.3-14.97-37.55-1.14.32-2.17.51-3.32.51-1.26,0-2.29-.2-3.44-.51-2.49,8.53-8.53,22.07-19.03,45.57l-12.08,26.85c1.46-.2,2.92-.63,4.7-.63,1.66,0,3.63.43,4.98.63,1.66-5.92,4.98-14.57,8.33-22.59,4.15-.2,8.33-.39,12.48-.39,4.46,0,8.85.2,13.31.39l4.38,11.02,4.34,11.57ZM241.92,70.82c-3.24.2-6.36.43-9.55.43-3.63,0-7.19-.32-10.82-.43l10.62-25.59,9.75,25.59ZM184.04,47.08c0-3.95.12-7.9.2-11.65,7.19,0,14.57.12,20.69.71-.32-1.66-.51-2.61-.51-3.75,0-.83.2-2.17.51-3.95-9.99.51-19.15.63-27.76.63-8.02,0-19.54-.12-27.76-.63.32,1.26.51,2.61.51,3.83s-.2,2.61-.51,3.83c5.33-.51,15.28-.71,16.23-.71h5.21c.12,4.07.2,7.7.2,11.57l.12,29.02c0,7.9-.63,15.91-1.03,23.81,3.75-.39,5.29-.63,7.07-.63,1.26,0,4.58.32,7.58.63-.32-2.92-.71-6.36-.71-14.25l-.04-38.46ZM137.88,99.84c1.86-.12,4.78-.63,7.7-.63s6.55.51,8.13.63c-4.7-10.11-11.53-25.78-15.52-34.87-3.75-8.73-9.99-23.3-14.97-37.55-1.14.32-2.17.51-3.32.51-1.26,0-2.29-.2-3.44-.51-2.49,8.53-8.53,22.07-19.03,45.57l-12.08,26.85c1.46-.2,2.92-.63,4.7-.63,1.66,0,3.63.43,4.97.63,1.66-5.92,5.02-14.57,8.33-22.59,4.15-.2,8.33-.39,12.48-.39,4.46,0,8.85.2,13.31.39l4.34,11.02,4.38,11.57ZM126.11,70.82c-3.24.2-6.36.43-9.6.43-3.63,0-7.19-.32-10.82-.43l10.62-25.59,9.79,25.59ZM66.06,119.82c3.12-2.17,8.02-4.9,11.53-6.44l-23.49-14.61c14.45-5.09,23.49-18.01,23.49-35.58,0-24.95-19.03-35.58-38.5-35.58C18.08,27.62,0,39.27,0,65.72c0,5.61,1.26,16.23,9.99,25.07,9.04,9.16,19.78,10.5,28.82,10.5,1.14,0,2.29,0,3.44-.12l23.81,18.64ZM14.25,66.24c0-26.22,14.06-33.29,24.64-33.29,17.06,0,24.44,14.14,24.44,29.22,0,8.65-1.03,16.74-5.29,23.3-4.27,6.55-11.33,10.5-19.03,10.5-19.23,0-24.76-18.32-24.76-29.73" style="fill: #5c0632;"/>
  <path d="M386.96,21.58c0-.91,1.54-1.66,3.47-1.66,9.87,0,40,.75,40,1.66s-30.09,1.66-40,1.66c-1.9,0-3.44-.75-3.47-1.66M358.84,79.62c-5.25,0-9.48-1.62-9.48-3.63s4.27-3.59,9.48-3.59c6.55,0,16.39.08,27.52.28-1.9,2.21-3.71,4.46-5.45,6.79-8.88.08-16.62.16-22.07.16M376.65,32.95c-3.36,0-6.12-1.03-6.12-2.33s2.72-2.33,6.12-2.33c12.71,0,44.42.55,60.53,1.34-1.03.67-2.05,1.38-3.08,2.05-16.82.75-45.53,1.26-57.45,1.26M416.69,44.16c-18.48.47-38.5.75-48.8.75-4.3,0-7.78-1.3-7.78-2.96s3.47-2.96,7.78-2.96c11.33,0,34.59.36,54.53.91-.99.71-1.97,1.46-3,2.21-.91.71-1.82,1.38-2.72,2.05M362.67,56.64c-4.86,0-8.77-1.5-8.77-3.36s3.91-3.36,8.77-3.36c9.95,0,27.96.24,46.04.63-2.13,1.82-4.23,3.63-6.32,5.53-15.87.36-30.96.55-39.72.55M451.63,52.02c7.3.39,11.89.83,11.89,1.26,0,.51-5.57.99-14.14,1.38,1.82-1.38,2.21-2.57,2.25-2.65M390.59,67.89c-12.44.2-23.61.32-30.76.32-5.13,0-9.32-1.58-9.32-3.55s4.19-3.55,9.32-3.55c8.33,0,22.03.16,36.88.43-2.13,2.05-4.15,4.19-6.12,6.36M390.47,128.74c9.87,0,40,.75,40,1.66s-30.09,1.66-40,1.66c-1.93,0-3.47-.75-3.47-1.66-.04-.91,1.54-1.66,3.47-1.66M434.18,122.46c-16.74.75-45.57,1.22-57.57,1.22-3.36,0-6.12-1.07-6.12-2.33s2.72-2.33,6.12-2.33c11.45,0,38.34.43,55.32,1.14.79.79,1.54,1.58,2.25,2.29M367.88,112.99c-4.3,0-7.78-1.34-7.78-2.96s3.47-2.96,7.78-2.96c11.37,0,34.67.36,54.61.91.95,1.38,1.93,2.76,2.84,4.03-20.53.59-45.53.99-57.45.99M375.98,95.53c1.7,2.05,3.55,3.99,5.57,5.72,0,0,.83,1.18,3.36.16,2.57-1.07,4.78-2.49,7.23-5.76,7.19.12,14.81.28,22.31.43.63.91,1.86,2.76,3.4,5.05-20.89.55-43.59.87-55.24.87-4.86,0-8.77-1.5-8.77-3.36s3.91-3.36,8.77-3.36c3.55,0,8.09.04,13.31.08.08.12.08.16.08.16M373.18,90.8c-5.21.08-9.79.08-13.39.08-5.13,0-9.32-1.58-9.32-3.55s4.19-3.55,9.32-3.55c4.54,0,10.74.04,17.81.12-2.72,3.95-4.03,6.32-4.19,6.48l-.24.43ZM457.24,41.95c0,.55-7.9,1.07-19.19,1.54,1.66-.99,3.36-1.93,5.05-2.84,8.53.39,14.14.83,14.14,1.3M466.91,64.66c0,.67-9.4,1.3-22.86,1.82-2.37-1.34-4.19-2.68-5.49-3.87,16.31.59,28.35,1.3,28.35,2.05" style="fill: #747f89;"/>
  <path d="M325.87,117.13h0ZM325.87,117.13v14.65h-5.49v-13.31s-1.11.43-2.65,1.1c-1.54.71-7.03,2.92-7.03,5.96v3.51h5.61v2.72h-13.31c0-.63.04-1.58.04-2.96,0-4.38-3.71-6.75-7.03-6.75h-15.4c-2.69,0-3.99.67-4.74,1.38v-11.25s-2.41,1.7-4.19,3.04c-1.78,1.34,0,2.25,0,2.25v14.29h-5.05l-.12-12.28s-3.51,2.57-4.5,3.36c-.99.79-.43,1.46.67,1.46,0,0-.2,9.04-.2,11.21s-1.78,4.62-5.53,3.47c0,0-1.18.24-.2,1.15.99.91,2.17,1.58,3.51,1.58s6.16-.91,6.16-6.2h63.49v-22.86s-3.75,2.49-4.5,3.12c-.79.63-.55,1.46.43,1.34M298.94,129.14c0,.67-.04,1.74-.08,2.65h-23.02v-4.07c.59-1.54,1.62-1.74,3.2-1.74h16.82c3.63,0,3.08,1.9,3.08,3.16M316.32,126.1h-2.65c0-1.46,2.65-2.25,2.65-2.25v2.25ZM332.66,115.79c-.79.67-.55,1.46.43,1.34v18.4h4.11v-22.9s-3.75,2.49-4.54,3.16M317.5,115.32c1.42,0,2.41-.55,2.41-1.66s-.67-1.94-2.41-1.94c-1.54,0-1.97.67-1.97,1.94s.55,1.66,1.97,1.66M312.01,115.32c1.42,0,2.41-.55,2.41-1.66s-.67-1.94-2.41-1.94c-1.54,0-1.97.67-1.97,1.94s.55,1.66,1.97,1.66M250.02,136.95c-1.54,0-1.97.67-1.97,1.9s.55,1.7,1.97,1.7,2.41-.55,2.41-1.7c.04-1.11-.63-1.9-2.41-1.9M244.53,136.95c-1.54,0-1.97.67-1.97,1.9s.55,1.7,1.97,1.7,2.41-.55,2.41-1.7c.04-1.11-.63-1.9-2.41-1.9M236.52,115.63c1.42,0,2.41-.55,2.41-1.7s-.67-1.93-2.41-1.93c-1.58,0-1.97.67-1.97,1.93s.55,1.7,1.97,1.7M231.22,115.63c1.42,0,2.41-.55,2.41-1.7s-.67-1.93-2.41-1.93c-1.54,0-1.97.67-1.97,1.93s.55,1.7,1.97,1.7M256.93,121.91s-2.61,1.5-4.22,2.96c-1.62,1.46.36,2.01.36,2.01v4.9h-12.4v-17.14s-4.54,4.15-4.94,4.7c-.43.59,1.07,1.11,1.07,1.11l-.24,1.62s-1.82.95-3.99,2.41c-2.17,1.46-3.79,3.32-3.79,4.62s-.55,6.36-.55,6.36h28.75v-13.54h-.04ZM236.63,131.74h-4.27s-.59-2.65.99-3.63c1.54-1.03,3.32-1.82,3.32-1.82l-.04,5.45ZM467.9,73.3c.08,1.82.08,3.59-.04,5.33-17.53.71-34.12,1.74-34.12,2.92s16.23,2.21,33.56,2.88c-.32,1.97-.71,3.95-1.18,5.88-17.06.71-32.89,1.74-32.89,2.88s14.77,2.13,31.15,2.8c-.75,2.05-1.58,4.11-2.57,6.08-14.06.67-25.67,1.58-25.67,2.57,0,.91,10.15,1.78,22.94,2.41-.71,1.15-1.46,2.29-2.25,3.4-.87,1.18-1.74,2.37-2.69,3.51-8.02.59-13.5,1.3-13.5,2.05,0,.63,3.95,1.22,9.99,1.78-3.55,3.47-7.5,6.51-11.81,9,0,0-5.41-4.66-9.91-10.11-3.99-4.86-12.48-17.69-14.45-20.57-2.01-2.88-3.32-3.71-5.65-2.88-3.12,1.11-6.75,1.66-7.9,1.66s-1.74-.43.16-1.18c1.86-.75,9.24-4.23,12.87-11.45,4.07-8.09.47-19.31.47-19.31-1.38,6-4.5,8.21-4.5,8.21,1.03-5.57-.08-10.58-2.84-14.14l-1.54,7.03s-.95-.04-3.32,1.93c-2.37,2.01-3,4.9-3,4.9,1.86.75,4.11-1.11,4.11-1.11-2.88,10.7-6.95,19.43-9.95,24.05-3,4.62-5.45,6.36-8.45,7.58-2.53,1.03-3.36-.16-3.36-.16-2.01-1.74-3.91-3.67-5.57-5.72,0,0-.16-.24.32-.24,1.22,0,3.44-2.09,3.91-2.96.55-.99.47-1.78.2-1.82-.28-.04-.75.75-3.12,2.25-2.37,1.5-3.44.47-4.22-.35-.59-.67,0-1.5.36-2.01.35-.47,12.87-23.77,45.96-48.29C462.77,10.01,490.49,1.32,492.07.69c1.07-.39,2.76-.95,3.16-.55.43.43.63.83.59,1.34-.04.51-.32.79-2.33,1.66-16.66,7.34-36.09,19.55-47.11,26.65-13.58,6.63-26.53,16.07-27.01,16.31-1.03.63-.28,1.58.36,1.18,22.94-15.24,49.79-25.63,79.52-34.16,1.42-.39,2.21-.39,2.45-.08.28.36.4.75.43,1.18.04.55-.39.83-1.62,1.3-31.9,11.85-55.44,22.86-70.56,33.05,0,0-1.58.95-1.58,2.05,0,.43.83.47.83.47,7.58.12,17.69.59,22.51.87,0,0-.67,2.45-5.29,4.42-3.55,1.5-6.87,1.26-10.11,1.3-.71,0-1.34.71-.75,1.5.16.4,7.11,11.57,32.34,14.1" style="fill: #5c0632;"/>
</svg>