<?xml version="1.0" encoding="UTF-8"?>
<svg id="Layer_1" xmlns="http://www.w3.org/2000/svg" xmlns:xlink="http://www.w3.org/1999/xlink" version="1.1" viewBox="0 0 189.86 141.73">
  <!-- Generator: Adobe Illustrator 29.3.1, SVG Export Plug-In . SVG Version: 2.1.0 Build 151)  -->
  <defs>
    <clipPath id="clippath">
      <path d="M70.98,0l38.78,38.79c3.99,3.98,4.65,9.96,1.66,14.6l-13.61,22.24h1c.66,0,1.32-.33,1.66-.99l10.62-17.26c1.33-1.99,3.65-3.32,6.31-3.32h7.63l8.63,8.63-.66-.33c-2.66-1-5.64,0-7.31,2.32l-11.61,18.92c-1.66,2.65-4.98,4.64-8.3,4.64h-39.17l14.27-22.9c1-1.99,1-4.65-.66-6.31l-22.24-21.91c-1.66-1.66-2.33-4.32-1.33-6.31l3.32-6.97,29.87,29.54c1.66,1.99,1.99,4.65.66,6.64l-13.94,22.57h28.55c1.99,0,3.65-1,4.64-2.66l10.62-17.26c.99-1.33,2.65-2.66,3.98-3.32l1-.33h-6.97.33c-1.66,0-2.99.99-3.65,1.99l-10.29,16.6c-1.33,2-3.32,3.32-5.64,3.32h-11.29l14.94-23.9c2.32-3.65,1.66-8.63-1.66-11.95L68.94,12.9c-1.66-1.66-1.99-3.98-1.33-6.31l3.3-6.59h.07Z" style="clip-rule: evenodd; fill: none;"/>
    </clipPath>
    <linearGradient id="linear-gradient" x1="54.51" y1="65.47" x2="117.37" y2="32.05" gradientUnits="userSpaceOnUse">
      <stop offset="0" stop-color="#f8c411"/>
      <stop offset="1" stop-color="#e19418"/>
    </linearGradient>
    <clipPath id="clippath-1">
      <path d="M65.29,11.9l34.19,33.85c2.99,2.99,3.65,7.63,1.33,10.96l-14.94,24.23h-6.31l12.28-19.92c1.66-2.66,1.33-6.64-1-8.96l-27.55-27.22c-1.33-1.66-1.99-4.32-1-6.31l2.99-6.64Z" style="clip-rule: evenodd; fill: none;"/>
    </clipPath>
    <linearGradient id="linear-gradient1" x1="66.33" y1="55.18" x2="95.76" y2="38.96" gradientUnits="userSpaceOnUse">
      <stop offset="0" stop-color="#f8c411"/>
      <stop offset="1" stop-color="#e19418"/>
    </linearGradient>
  </defs>
  <g style="clip-path: url(#clippath);">
    <rect x="55.66" width="78" height="88.24" style="fill: url(#linear-gradient);"/>
  </g>
  <g style="clip-path: url(#clippath-1);">
    <rect x="61.31" y="11.9" width="41.82" height="69.04" style="fill: url(#linear-gradient1);"/>
  </g>
  <polygon points="5.97 102.02 4.98 102.02 3.65 102.35 2.65 102.68 1.66 103.01 1 103.68 .33 104.67 0 105.34 0 107 .33 107.99 1 108.66 1.66 109.32 2.65 109.98 3.65 110.31 4.98 110.65 12.94 110.65 13.61 110.98 13.94 111.31 14.27 111.98 14.6 112.31 14.27 112.97 13.94 113.31 13.61 113.63 12.94 113.96 .33 113.96 .33 117.29 12.94 117.29 14.27 116.95 15.27 116.62 16.26 116.29 17.26 115.63 17.92 114.96 18.59 114.3 18.92 113.31 18.92 111.31 18.59 110.65 17.92 109.65 17.26 108.99 16.26 108.66 15.27 108.32 14.27 107.99 12.94 107.66 5.31 107.66 4.98 107.33 4.65 106.66 4.31 106.33 4.65 106 4.98 105.34 5.31 105.01 5.97 105.01 6.64 104.67 18.26 104.67 18.26 102.02 5.97 102.02" style="fill: #005a96; fill-rule: evenodd;"/>
  <rect x="23.57" y="102.02" width="4.64" height="15.27" style="fill: #005a96;"/>
  <rect x="33.52" y="102.02" width="4.31" height="15.27" style="fill: #005a96;"/>
  <polygon points="40.16 102.02 46.47 102.02 47.8 102.35 48.79 102.68 49.79 103.01 50.78 103.68 51.45 104.34 52.11 105.01 52.44 106 52.44 117.29 48.13 117.29 48.13 106.33 47.8 105.67 47.46 105.34 46.8 105.01 46.14 104.67 37.84 104.67 40.16 102.02" style="fill: #005a96; fill-rule: evenodd;"/>
  <polygon points="76.67 117.29 64.72 117.29 63.06 116.95 61.74 116.29 60.41 115.96 59.41 114.96 58.42 113.96 57.42 112.97 56.76 111.98 56.43 110.98 56.43 107.66 57.09 106.33 57.75 105.67 58.42 104.67 59.41 104.01 60.74 103.35 62.07 102.68 63.4 102.35 64.72 102.35 66.38 102.02 76.67 102.02 76.67 104.67 65.72 104.67 64.72 105.01 63.73 105.34 62.73 105.67 62.07 106.33 61.41 107 61.07 107.99 60.74 108.66 60.74 109.65 61.07 110.65 61.41 111.31 62.07 112.31 62.73 112.97 63.73 113.31 64.72 113.96 65.72 113.96 67.05 114.3 72.03 114.3 72.03 107 76.67 107 76.67 117.29" style="fill: #005a96; fill-rule: evenodd;"/>
  <path d="M80.65,112.97l2.32-3.98,2.33-3.65,2.66-3.32h4.65l2.32,3.32,2.66,3.65,2.32,3.98,2.32,4.31h-4.98l-2.33-4.98h-9.29l-2.32,4.98h-4.98l2.32-4.31ZM93.27,109.65l-2.99-4.98-2.99,4.98h5.98Z" style="fill: #005a96; fill-rule: evenodd;"/>
  <polygon points="104.56 117.29 104.56 102.02 116.84 102.02 118.16 102.35 119.16 102.68 120.15 103.01 121.15 103.68 121.81 104.34 122.15 105.34 122.48 106.33 122.48 107.99 121.81 108.99 121.48 109.65 120.49 110.65 119.49 110.98 118.49 111.64 117.17 111.98 111.19 111.98 108.87 108.99 116.17 108.99 116.84 108.66 117.5 108.32 118.16 107.99 118.49 107.33 118.49 106.33 118.16 105.67 117.5 105.34 116.84 104.67 108.87 104.67 108.87 117.29 104.56 117.29" style="fill: #005a96; fill-rule: evenodd;"/>
  <path d="M147.37,108.99v1.32l-.33,1-.66,1-.66,1.32-.66,1-1,.67-1.32,1-1,.66-1.33.33-1.66.66h-4.32l-1.33-.33-1.66-.33-1-.67-1.33-.66-1-.99-1-1-.66-.99-.66-1-.33-1-.33-1.33v-1l.33-1,.33-1.33.66-1,.66-.66,1-1,1-.67,1.33-.66,1-.33,1.66-.33,1.33-.33h4.32l1.66.33,1.33.67,1,.33,1.32.67,1,.66.66,1,.66.66.66.99.33,1.33v1ZM143.06,109.32l-.33-1v-.99l-.67-.66-.66-.66-1-.67-1-.66-.99-.33h-3.65l-1,.33-1,.33-1,.66-.99.66-.33.66-.66,1v2.66l.66.67.33,1,.99.66,1,.66,1,.33,1,.33h3.65l.99-.33,1-.66,1-.67.66-1,.67-.66v-1l.33-.67Z" style="fill: #005a96; fill-rule: evenodd;"/>
  <polygon points="150.69 117.29 150.69 102.02 163.64 102.02 164.63 102.35 165.96 102.68 166.62 103.01 167.62 103.68 168.29 104.67 168.61 105.34 168.95 106.33 168.61 107 168.61 107.99 167.95 108.99 167.29 109.65 166.29 110.31 165.3 110.98 164.3 111.31 170.61 117.29 164.97 117.29 156.34 108.66 162.31 108.66 162.97 108.32 163.64 107.99 163.97 107.33 164.3 107 164.3 106.33 163.97 105.67 163.64 105.34 162.97 105.01 162.31 104.67 155.01 104.67 155.01 117.29 150.69 117.29" style="fill: #005a96; fill-rule: evenodd;"/>
  <polygon points="189.86 102.02 189.86 104.67 177.91 104.67 177.91 107.33 188.2 107.33 188.2 110.31 177.91 110.31 177.91 113.96 189.86 113.96 189.86 117.29 173.59 117.29 173.59 102.02 189.86 102.02" style="fill: #005a96; fill-rule: evenodd;"/>
  <path d="M43.48,141.73h-4.98l-2.32-4.98h-8.96l-2.65,4.98h-4.98l9.63-15.27h4.65l9.63,15.27ZM28.54,134.1h5.98l-2.99-4.98-2.99,4.98Z" style="fill: #005a96; fill-rule: evenodd;"/>
  <rect x="46.47" y="126.46" width="4.31" height="15.27" style="fill: #005a96;"/>
  <polygon points="77 141.73 71.03 141.73 62.73 133.1 68.71 133.1 69.37 132.77 70.03 132.44 70.37 131.77 70.7 131.44 70.7 130.78 70.37 130.12 70.03 129.78 69.37 129.45 68.71 129.12 61.41 129.12 61.41 141.73 57.09 141.73 57.09 126.46 69.7 126.46 71.03 126.8 72.02 127.13 73.02 127.46 74.02 128.12 74.35 129.12 75.02 129.78 75.02 131.44 74.68 132.44 74.35 133.43 73.69 134.1 72.69 134.76 71.7 135.43 70.37 135.76 77 141.73" style="fill: #005a96; fill-rule: evenodd;"/>
  <polygon points="79.66 141.73 79.66 126.46 84.31 126.46 84.31 138.41 94.27 138.41 94.27 141.73 79.66 141.73" style="fill: #005a96; fill-rule: evenodd;"/>
  <rect x="97.25" y="126.46" width="4.32" height="15.27" style="fill: #005a96;"/>
  <rect x="107.21" y="126.46" width="4.32" height="15.27" style="fill: #005a96;"/>
  <polygon points="126.46 141.73 126.46 131.44 126.13 130.45 125.8 129.45 125.47 128.79 124.8 128.12 123.81 127.46 122.81 127.13 121.82 126.8 120.49 126.46 114.18 126.46 111.86 129.12 120.15 129.12 120.82 129.45 121.48 129.78 121.82 130.12 121.82 141.73 126.46 141.73" style="fill: #005a96; fill-rule: evenodd;"/>
  <polygon points="131.44 141.73 131.44 126.46 147.37 126.46 147.37 129.12 135.76 129.12 135.76 131.77 146.05 131.77 146.05 134.76 135.76 134.76 135.76 138.41 147.37 138.41 147.37 141.73 131.44 141.73" style="fill: #005a96; fill-rule: evenodd;"/>
  <polygon points="151.69 141.73 164.63 141.73 165.63 141.4 166.96 141.07 167.95 140.74 168.62 140.07 169.28 139.41 169.95 138.74 170.28 137.75 170.28 135.76 169.95 135.09 169.28 134.1 168.62 133.43 167.95 133.1 166.96 132.77 165.63 132.44 164.63 132.11 156.67 132.11 156.34 131.44 156 131.11 155.67 130.45 156 130.12 156.34 129.78 156.67 129.12 169.95 129.12 169.95 126.46 156.34 126.46 155.01 126.8 154.01 127.13 153.35 127.46 152.35 128.12 152.02 129.12 151.69 129.78 151.36 130.45 151.69 131.44 152.02 132.44 152.35 133.1 153.35 133.76 154.01 134.43 155.01 134.76 156.34 135.09 164.63 135.09 164.96 135.43 165.63 135.76 165.96 136.42 165.96 137.42 165.63 137.75 164.96 138.08 164.63 138.41 151.69 138.41 151.69 141.73" style="fill: #005a96; fill-rule: evenodd;"/>
</svg>