<?xml version="1.0" encoding="UTF-8"?>
<svg id="Layer_1" xmlns="http://www.w3.org/2000/svg" version="1.1" viewBox="0 0 169.53 141.73">
  <!-- Generator: Adobe Illustrator 29.3.1, SVG Export Plug-In . SVG Version: 2.1.0 Build 151)  -->
  <path d="M40.72,78.22c19.41-1.06,39.55-10.56,47.84-28.18,5.2-11.05,12.34-18.6,21.12-21.69-11.86,2.84-18.03,6.34-23.72,11.78-8.45,8.04-6.42,10.4-17.46,22.34-10.72,11.13-24.04,14.54-27.78,15.76" style="fill: #009148; fill-rule: evenodd;"/>
  <path d="M91.4,82.36c10.97-5.77,17.3-10.4,22.82-19.74,5.44-9.26,3.9-20.55,11.05-29.16-4.39,15.76,3.17,23.15-6.5,36.96-9.42,13.4-27.37,11.94-27.37,11.94" style="fill: #f06022; fill-rule: evenodd;"/>
  <path d="M144.27,5.36c-.49,0-.81-.32-.81-.81,0-.41.32-.81.81-.81v-1.38c-.81.81-1.46,1.71-1.87,2.52-1.38,0-3.41,1.14-4.14,3.41-.4,1.38-1.38,1.95-1.38,1.95,0,0,2.44-.24,3.17-2.44.41-1.3,1.38-2.19,2.2-2.44-1.95,3.74-1.38,10.23-11.54,15.92-13.08,6.5-26.72,6.66-34.68,21.28-3.58,6.58-6.34,14.62-12.51,21.28-17.79,19.33-42.97,26.23-62.7,28.83,25.18.33,56.69-5.28,78.38-20.79,12.51-9.02,14.62-18.68,18.52-30.13,4.79-13.97,22.58-13.48,26.56-29.89v-6.5ZM144.27,3.74c.49,0,.81.41.81.81,0,.49-.33.81-.81.81v6.5c.16-.57.24-1.14.33-1.71.89-6.17,2.27-8.45,4.14-10.15-1.62.16-3.25,1.14-4.47,2.35v1.38Z" style="fill: #d71440; fill-rule: evenodd;"/>
  <path d="M.35,117.45c-.08,3.57,3.98,5.85,8.53,5.93,4.47.08,6.42-1.71,7.07-4.14,2.11-8.45-18.52-9.18-13.81-19.33,2.6-5.52,10.96-4.63,14.38-3.25,3.49,1.38,3.41,3.41,3.25,5.12-.89-3.09-5.2-4.71-10.31-3.82-6.34,1.06-5.52,6.99,2.35,10.56,4.14,1.87,9.5,4.55,8.93,9.67-.89,8.45-14.78,10.23-19.65,4.79-.97-1.06-1.46-3.01-.73-5.52" style="fill: #0086be; fill-rule: evenodd;"/>
  <path d="M24.72,103.64h4.06c.65.57.65,1.71.65,2.27,1.06-1.14,1.95-2.19,4.14-2.44,2.19-.24,3.33,1.06,3.74,1.62-2.6-.98-5.28-.57-7.55,4.79-.81,2.03-1.38,6.01-1.54,10.23-.16,3.17.32,4.55,1.06,5.28h-4.14c-.16,0-1.14-3.57-.32-8.85.73-5.2.73-5.93.81-8.2,0-2.84.08-3.41-.89-4.71" style="fill: #0086be; fill-rule: evenodd;"/>
  <path d="M81.41,103.64h4.06c.65.57.73,2.36.73,4.14,1.14-2.11,4.14-4.95,9.42-4.71,5.28.16,7.47,4.47,6.9,7.96-.57,3.57-1.38,12.67.49,14.38h-3.57c-1.05-1.06-1.05-3.33-.98-7.07.16-3.82,1.87-8.85.08-10.96-2.6-2.92-10.48-2.27-12.35,3.25-1.22,3.74-1.14,5.28-1.3,9.5-.16,3.17.33,4.55,1.06,5.28h-4.14c-.16,0-1.14-3.57-.32-8.85.41-2.92,1.87-10.23-.08-12.91" style="fill: #034693; fill-rule: evenodd;"/>
  <path d="M147.93,103.64h4.06c.65.57.73,2.36.73,4.14,1.14-2.11,4.14-4.95,9.42-4.71,5.2.16,7.47,4.47,6.9,7.96-.57,3.57-1.46,12.67.49,14.38h-3.65c-.97-1.06-.97-3.33-.89-7.07.08-3.82,1.87-8.85,0-10.96-2.6-2.92-10.4-2.27-12.26,3.25-1.3,3.74-1.14,5.28-1.3,9.5-.16,3.17.33,4.55,1.06,5.28h-4.22c-.08,0-1.06-3.57-.33-8.85.49-2.92,1.87-10.23,0-12.91" style="fill: #034693; fill-rule: evenodd;"/>
  <path d="M39.09,103.64c1.3,1.79,1.06,3.82,1.06,3.82,0,0-1.14,8.37-1.3,11.7-.16,3.17-.08,4.96.65,6.25h3.98c-1.06-1.22-.89-4.14-.81-6.5.24-3.65.65-7.15,1.06-10.48.41-3.74-2.6-4.47-4.63-4.79" style="fill: #0086be; fill-rule: evenodd;"/>
  <path d="M41.12,96c1.3,0,2.44,1.06,2.44,2.36,0,1.38-1.14,2.44-2.44,2.44s-2.35-1.06-2.35-2.44c0-1.3,1.06-2.36,2.35-2.36" style="fill: #0086be; fill-rule: evenodd;"/>
  <path d="M61.1,107.13s1.95-3.74,8.2-4.06c6.25-.33,7.63,1.46,8.61,3.25,1.05,1.79-.65,7.72-.81,11.45-.08,3.65-.08,6.34.89,7.63h-3.98c-.41-1.46-.57-3.33-.57-5.36s.33-6.42.57-8.2c-.57.73-2.76,1.71-5.44,2.52-2.76.81-8.28,3.09-6.66,7.07.89,2.19,3.33,2.6,5.6,2.03,1.87-.4,3.49-1.38,4.39-2.27-.16.33-.49.73-.73,1.06-1.22,1.3-3.17,2.52-6.09,3.17-3.74.73-6.33-.32-9.58-.49-3.33-.16-7.07.49-7.07.49,0,0-.89-1.62-.65-5.69.24-4.06,1.06-9.1,1.06-13.56.16-4.14.24-8.12-.81-10.15h3.98c.24.98.89,4.22.65,10.72-.24,6.42-1.38,10.64-.97,15.51,7.96-.41,7.88,2.03,11.21,2.19-.89-.33-1.71-.73-2.36-1.54-1.87-2.11-2.36-5.28.08-7.55,2.52-2.35,13.4-3.01,13.64-6.58.41-4.96-7.96-5.04-13.16-1.63" style="fill: #034693; fill-rule: evenodd;"/>
  <path d="M127.62,107.13s1.95-3.74,8.28-4.06c6.25-.33,7.55,1.46,8.61,3.25.97,1.79-.73,7.72-.81,11.45-.16,3.65-.08,6.34.81,7.63h-3.9c-.41-1.46-.57-3.33-.57-5.36s.33-6.42.57-8.2c-.65.73-2.76,1.79-5.52,2.6-2.68.81-8.2,2.68-6.58,6.99,1.63,4.31,8.29,1.46,9.91-.16-2.03,3.73-8.85,6.5-12.27,2.6-1.78-2.11-2.03-5.77,1.3-8.53,3.25-2.76,13.08-3.01,13.4-6.58.41-4.96-7.96-5.04-13.24-1.63" style="fill: #034693; fill-rule: evenodd;"/>
  <path d="M125.76,103.15c-6.01,1.79-7.8,5.28-11.78,9.42,3.66,3.49,5.44,10.56,10.56,12.83h-4.38c-5.28-3.33-6.5-10.07-9.99-12.75-.33,3.08-.65,6.58-.65,8.04,0,2.27.16,3.9.89,4.71h-4.06c-.73-1.22-.73-3.33-.57-6.01.24-4.22.82-9.42.89-11.7.08-3.49.24-10.56-.73-11.7h4.06c.73,4.22.57,9.83.49,12.18,0,.81-.16,2.27-.33,3.98,4.31-3.33,6.01-8.69,15.59-9.01" style="fill: #034693; fill-rule: evenodd;"/>
  <path d="M103.5,139.3c0,.98,1.14,1.63,2.52,1.71,1.3,0,1.87-.49,2.03-1.22.65-2.35-5.44-2.6-4.06-5.44.81-1.63,3.25-1.38,4.22-.97,1.06.4,1.06.97.97,1.46-.24-.89-1.54-1.46-3.01-1.06-1.87.49-1.22,1.95.89,2.84,1.14.49,2.52,1.38,2.36,2.84-.24,2.44-4.22,2.92-5.69,1.38-.24-.32-.49-.81-.24-1.54" style="fill: #0086be; fill-rule: evenodd;"/>
  <path d="M73.78,133.28h1.54c.24.24.24.65.24.89.41-.49.73-.89,1.54-.97.81-.08,1.3.4,1.38.65-.97-.41-1.95-.24-2.84,1.79-.33.73-.49,2.27-.57,3.9-.08,1.22.16,1.71.41,1.95h-1.62s-.41-1.3-.08-3.33c.32-1.95.24-2.27.32-3.09,0-1.05,0-1.3-.32-1.79" style="fill: #0086be; fill-rule: evenodd;"/>
  <path d="M86.28,133.28h1.54c.16.24.24.89.24,1.54.41-.81,1.54-1.87,3.57-1.78,1.95.08,2.84,1.71,2.6,3-.16,1.38-.57,4.79.16,5.44h-1.38c-.32-.41-.32-1.22-.32-2.68.08-1.38.73-3.33,0-4.14-.97-1.06-3.9-.81-4.63,1.22-.49,1.46-.41,2.03-.49,3.66-.08,1.22.08,1.71.41,1.95h-1.62s-.41-1.3-.08-3.33c.16-1.14.65-3.9,0-4.87" style="fill: #0086be; fill-rule: evenodd;"/>
  <path d="M70.36,133.28c.49.65.41,1.46.41,1.46,0,0-.41,3.17-.49,4.39-.08,1.22-.08,1.87.24,2.36h1.54c-.41-.41-.41-1.54-.32-2.44.08-1.38.24-2.68.41-3.98.16-1.38-.97-1.7-1.79-1.79" style="fill: #0086be; fill-rule: evenodd;"/>
  <path d="M82.79,133.28c.49.65.41,1.46.41,1.46,0,0-.41,3.17-.49,4.39-.08,1.22-.08,1.87.24,2.36h1.46c-.41-.41-.33-1.54-.24-2.44.08-1.38.24-2.68.33-3.98.16-1.38-.97-1.7-1.71-1.79" style="fill: #0086be; fill-rule: evenodd;"/>
  <path d="M71.18,130.36c.49,0,.89.41.89.89s-.41.89-.89.89-.89-.41-.89-.89.41-.89.89-.89" style="fill: #0086be; fill-rule: evenodd;"/>
  <path d="M83.52,130.36c.57,0,.97.41.97.89s-.41.89-.97.89c-.49,0-.89-.41-.89-.89s.4-.89.89-.89" style="fill: #0086be; fill-rule: evenodd;"/>
  <path d="M80.84,130.36c.32,1.62.24,3.74.24,4.63-.08.89-.41,3.9-.41,4.71,0,.89.08,1.46.32,1.79h-1.54c-.24-.41-.24-1.22-.16-2.28.08-1.54.24-3.57.33-4.39,0-1.3.08-4.06-.33-4.47h1.54Z" style="fill: #0086be; fill-rule: evenodd;"/>
  <path d="M59.81,141.49h1.62c-.08-.33.24-2.44,1.22-3.66,1.06-1.22,2.52-.9,3.17-.65-.24-.57-1.22-1.14-2.6-.81.49-1.62,1.22-2.11,1.3-4.87,1.06,1.87,1.95,8.69,3.41,9.99h1.62c-2.03-2.03-2.27-8.21-4.14-11.13h-1.62c.24,3.09-3.74,7.72-3.98,11.13" style="fill: #0086be; fill-rule: evenodd;"/>
  <path d="M99.2,141.73h-.24c-1.79-.08-3.08-1.71-3.17-3.82v-.65c0-.41.08-.81.16-1.22.65-2.27,2.11-2.84,3.25-2.92v.89c-.49.24-1.06.65-1.46,1.3-.57.89-.73,2.11-.49,3.17.24-.57,1.14-.98,1.95-1.38v.65c-.57.33-1.14.73-1.62,1.3-.24.33.24,1.46,1.22,1.71.16.08.24.08.41.16v.81ZM99.2,133.12c.32-.08.57-.08.73-.08,1.14,0,3.09.81,2.52,2.6-.32,1.22-1.78,1.38-3.25,2.11v-.65c.41-.16.73-.33,1.06-.57.97-.65,1.3-1.46.89-2.03-.49-.65-1.22-.73-1.95-.49v-.89ZM102.2,140.03c-.41.41-.89,1.62-3.01,1.71v-.81c1.14.16,2.11-.25,3.01-.89Z" style="fill: #0086be; fill-rule: evenodd;"/>
</svg>