<?xml version="1.0" encoding="UTF-8"?>
<svg id="Layer_1" xmlns="http://www.w3.org/2000/svg" version="1.1" viewBox="0 0 471.01 141.73">
  <!-- Generator: Adobe Illustrator 29.3.1, SVG Export Plug-In . SVG Version: 2.1.0 Build 151)  -->
  <path d="M329.28,70.87c0-39.14,31.73-70.87,70.87-70.87s70.86,31.73,70.86,70.87-31.73,70.86-70.86,70.86-70.87-31.72-70.87-70.86" style="fill: #fff; fill-rule: evenodd;"/>
  <path d="M462.23,70.87c0,34.29-27.8,62.08-62.08,62.08s-62.08-27.79-62.08-62.08,27.79-62.08,62.08-62.08,62.08,27.8,62.08,62.08" style="fill: #c60a0e; fill-rule: evenodd;"/>
  <path d="M400.15,10.57c33.3,0,60.29,27,60.29,60.3s-26.99,60.3-60.29,60.3-60.3-27-60.3-60.3,27-60.3,60.3-60.3M336.28,70.87c0-35.27,28.59-63.87,63.87-63.87s63.87,28.59,63.87,63.87-28.59,63.87-63.87,63.87-63.87-28.59-63.87-63.87Z" style="fill: #c60a0e; fill-rule: evenodd;"/>
  <path d="M452.91,81.83l-107.02,22.75s-.19.05-.36.08c-.72-1.15-1.4-2.34-2.04-3.54.18-.04.36-.07.36-.07,17.41-3.29,33.22-10.86,39.92-30.44,7.18-20.97,2.24-43.82-12.5-56.72,0,0-.17-.15-.29-.25,1.42-.72,2.87-1.4,4.35-2.02.18.08.44.19.45.19,29.96,12.55,45.36,29.52,45.36,45.81-.14,10.05-5.29,16.96-11.81,22.43h43.58c1.23,0,1.52,1.46,0,1.78" style="fill: #fff;"/>
  <path d="M50.07,123.63l-17.48-46.44h-15.11L0,123.63h13.58l2.3-6.69h18.32l2.3,6.69h13.58ZM30.92,106.5h-11.77l5.92-17.48,5.85,17.48Z" style="fill: #dd1f27; fill-rule: evenodd;"/>
  <rect x="54.87" y="77.19" width="11.98" height="46.44" style="fill: #dd1f27;"/>
  <path d="M116.22,123.63l-9.47-17.06c4.39-1.53,9.26-5.85,9.26-13.93,0-8.63-5.85-15.45-16.16-15.45h-23.26v46.44h11.98v-15.6h6.13l7.8,15.6h13.72ZM98.05,97.59h-9.47v-9.96h9.47c3.2,0,5.78,1.74,5.78,4.95s-2.58,5.01-5.78,5.01Z" style="fill: #dd1f27; fill-rule: evenodd;"/>
  <polygon points="154.45 123.63 154.45 113.18 135.79 113.18 135.79 77.19 123.81 77.19 123.81 123.63 154.45 123.63" style="fill: #dd1f27; fill-rule: evenodd;"/>
  <rect x="161.97" y="77.19" width="11.98" height="46.44" style="fill: #dd1f27;"/>
  <polygon points="226.88 123.63 226.88 77.19 214.83 77.19 214.83 102.74 196.02 77.19 183.7 77.19 183.7 123.63 195.68 123.63 195.68 96.75 215.32 123.63 226.88 123.63" style="fill: #dd1f27; fill-rule: evenodd;"/>
  <polygon points="270.68 123.63 270.68 113.18 248.6 113.18 248.6 105.31 270.19 105.31 270.19 94.87 248.6 94.87 248.6 87.63 270.68 87.63 270.68 77.19 236.62 77.19 236.62 123.63 270.68 123.63" style="fill: #dd1f27; fill-rule: evenodd;"/>
  <path d="M296.3,124.46c12.47,0,19.36-6.19,19.36-15.53,0-17.27-26.25-12.96-26.25-18.66,0-2.02,1.54-3.2,5.01-3.2,4.6,0,9.68,1.6,13.58,4.88l6.54-8.99c-4.94-4.25-11.42-6.48-18.87-6.48-11.91,0-18.46,6.97-18.46,14.76,0,17.9,26.26,12.82,26.26,18.95,0,2.3-2.51,3.69-6.54,3.69-6.41,0-11.57-2.79-14.91-6.14l-6.33,9.33c4.66,4.39,11.21,7.38,20.61,7.38" style="fill: #dd1f27; fill-rule: evenodd;"/>
  <polygon points="27.7 64.55 27.7 28.55 40.65 28.55 40.65 18.1 2.7 18.1 2.7 28.55 15.72 28.55 15.72 64.55 27.7 64.55" style="fill: #dd1f27; fill-rule: evenodd;"/>
  <path d="M70.43,65.38c14.9,0,21.87-8.15,21.87-19.71v-27.58h-12.12v27.23c0,5.5-3.34,9.47-9.75,9.47s-9.82-3.97-9.82-9.47v-27.23h-12.18v27.64c0,11.42,7.1,19.64,22,19.64" style="fill: #dd1f27; fill-rule: evenodd;"/>
  <path d="M143.3,64.55l-9.47-17.06c4.39-1.53,9.26-5.85,9.26-13.93,0-8.64-5.85-15.46-16.15-15.46h-23.26v46.45h11.98v-15.6h6.13l7.8,15.6h13.72ZM125.12,38.51h-9.47v-9.96h9.47c3.21,0,5.78,1.74,5.78,4.95s-2.58,5.01-5.78,5.01Z" style="fill: #dd1f27; fill-rule: evenodd;"/>
  <polygon points="194.62 64.55 175.61 39.83 193.65 18.1 178.88 18.1 164.61 37.18 164.61 18.1 152.63 18.1 152.63 64.55 164.61 64.55 164.61 50.97 167.74 47.07 179.93 64.55 194.62 64.55" style="fill: #dd1f27; fill-rule: evenodd;"/>
  <rect x="201.09" y="18.1" width="11.98" height="46.45" style="fill: #dd1f27;"/>
  <path d="M241.63,65.38c12.47,0,19.36-6.2,19.36-15.53,0-17.26-26.25-12.95-26.25-18.66,0-2.02,1.53-3.2,5.02-3.2,4.59,0,9.67,1.6,13.58,4.87l6.54-8.99c-4.94-4.25-11.42-6.47-18.87-6.47-11.9,0-18.45,6.96-18.45,14.76,0,17.9,26.25,12.81,26.25,18.95,0,2.29-2.51,3.69-6.54,3.69-6.4,0-11.56-2.79-14.91-6.13l-6.34,9.33c4.66,4.38,11.22,7.38,20.61,7.38" style="fill: #dd1f27; fill-rule: evenodd;"/>
  <polygon points="312.73 64.55 312.73 18.1 300.75 18.1 300.75 35.51 281.46 35.51 281.46 18.1 269.48 18.1 269.48 64.55 281.46 64.55 281.46 45.96 300.75 45.96 300.75 64.55 312.73 64.55" style="fill: #dd1f27; fill-rule: evenodd;"/>
</svg>