<?xml version="1.0" encoding="UTF-8"?>
<svg id="Layer_1" xmlns="http://www.w3.org/2000/svg" version="1.1" viewBox="0 0 596.57 141.73">
  <!-- Generator: Adobe Illustrator 29.3.1, SVG Export Plug-In . SVG Version: 2.1.0 Build 151)  -->
  <path d="M-.17,101.89S175.49,79.38,284.19,2.34c0,0-157.05-12.99-256.51,22.27,0,0,111.61-15.26,116.25-.67C150.74,45.35-.17,101.89-.17,101.89" style="fill: #0054a5;"/>
  <path d="M7.86,94.28s69.04-32.12,70.16-51.12c.8-13.55-46.65-16.31-46.65-16.31,0,0,107.3-12.78,105.84.15-1.77,15.75-109.56,62.28-129.35,67.29" style="fill: #00ad4d;"/>
  <path d="M69.59,42.45c1.68,6.76-9.05,15.68-20.64,18.56-11.59,2.88-22.35-.26-24.03-7.02-1.68-6.75,6.36-14.56,17.95-17.44,11.59-2.88,25.04-.86,26.72,5.9" style="fill: #ec1c24;"/>
  <polygon points="167.19 42.88 166.36 40.48 164.98 42.62 162.48 42.64 164.04 44.64 163.31 47.06 165.69 46.14 167.71 47.55 167.63 45.07 169.58 43.49 167.19 42.88" style="fill: #fff;"/>
  <polygon points="220.66 24.14 219.77 21.66 218.34 23.86 215.7 23.95 217.37 25.96 216.65 28.43 219.06 27.55 221.26 29.03 221.08 26.43 223.16 24.8 220.66 24.14" style="fill: #fff;"/>
  <polygon points="129.53 55.91 128.7 53.41 127.23 55.64 124.65 55.69 126.26 57.75 125.5 60.22 127.96 59.33 130.13 60.81 129.98 58.2 132.07 56.59 129.53 55.91" style="fill: #fff;"/>
  <polygon points="144.58 12.42 143.72 9.98 142.28 12.15 139.64 12.21 141.27 14.26 140.55 16.76 142.97 15.83 145.16 17.28 145.01 14.7 147.11 13.13 144.58 12.42" style="fill: #fff;"/>
  <polygon points="183.75 9.72 182.93 7.26 181.46 9.44 178.87 9.5 180.46 11.55 179.77 14.04 182.19 13.11 184.39 14.59 184.21 12 186.33 10.42 183.75 9.72" style="fill: #fff;"/>
  <polygon points="196.5 30.42 194.87 32.35 192.35 32.1 193.7 34.28 192.68 36.65 195.16 35.97 197.05 37.65 197.26 35.13 199.41 33.82 197.07 32.88 196.5 30.42" style="fill: #fff;"/>
  <polygon points="249.68 10.6 249.12 8.1 247.52 10.07 244.99 9.82 246.34 11.99 245.31 14.34 247.8 13.68 249.65 15.36 249.88 12.84 252.01 11.52 249.68 10.6" style="fill: #fff;"/>
  <polygon points="172.71 20.88 171.07 22.81 168.53 22.59 169.91 24.73 168.86 27.12 171.37 26.42 173.28 28.15 173.45 25.58 175.57 24.28 173.27 23.33 172.71 20.88" style="fill: #fff;"/>
  <polygon points="217.99 10.78 215.63 9.83 215.09 7.34 213.44 9.3 210.95 9.09 212.25 11.23 211.25 13.53 213.74 12.91 215.63 14.56 215.8 12.07 217.99 10.78" style="fill: #fff;"/>
  <path d="M329.69,76.59h0c-.52,2.02-2.6,3.67-4.62,3.67h-4.54l1.9-7.33h4.54c2.02,0,3.24,1.65,2.72,3.67M326.44,89.01h0c-.52,2.02-2.6,3.67-4.62,3.67h-4.54l1.9-7.34h4.54c2.02,0,3.24,1.65,2.72,3.67ZM339.08,63.49h-32.88l-10.36,38.93h32.88c.22-.03.41-.08.67-.1,7.61-.62,10.06-4.86,11.95-10.43,1.89-5.56-.47-9.71-.47-9.71,3.39-1.13,5-8.58,5-8.58,2.17-9.81-6.79-10.1-6.79-10.1Z" style="fill: #ec1c24;"/>
  <path d="M208.16,63.49l-7.63,28.5c-.17.7-.46,1.22-.83,1.58-.38.43-.83.73-1.26.93-.47.22-.96.36-1.46.44-.5.06-.91.09-1.25.09-.28,0-.66-.09-1.06-.36-.42-.21-.8-.52-1.08-.88-.35-.37-.6-.79-.74-1.3-.23-.47-.26-.96-.1-1.44l7.34-27.56h-17.96l-8.1,30.4c-.21.69-.21,1.51,0,2.51.22.95.54,1.88,1.02,2.76.44.92.98,1.69,1.54,2.34.57.65,1.16.91,1.76.91h30.81c.7,0,1.6-.35,2.62-1.04,1.07-.71,2.14-1.59,3.11-2.66,1.03-1.08,1.94-2.2,2.74-3.38.84-1.21,1.35-2.33,1.6-3.35l7.65-28.5h-18.72Z" style="fill: #ec1c24;"/>
  <path d="M274.72,67.23c-.45-1.04-1.02-1.96-1.67-2.65-.71-.71-1.36-1.09-2.09-1.09h-30.82c-.58,0-1.34.4-2.27,1.17-.98.73-1.94,1.62-2.92,2.65-.98,1.06-1.86,2.14-2.62,3.3-.77,1.1-1.25,2.01-1.44,2.65l-2.1,8.04c-.51,1.96-.7,3.2-.48,3.81.24.62.91.95,2.15.95h23.8l-1.3,4.99c-.4,1.49-1.28,3.96-5.09,3.98-2.01,0-3.54-2.09-2.99-4.05h-18.72l-.24,1.01c-.22,1.02-.23,2.14-.04,3.35.2,1.18.5,2.3.96,3.38.45,1.07.99,1.95,1.65,2.66.64.69,1.28,1.04,2.02,1.04h30.8c.61,0,1.35-.27,2.27-.91.94-.65,1.86-1.42,2.78-2.34.91-.88,1.73-1.81,2.44-2.76.73-.99,1.18-1.82,1.36-2.51l3.02-11.38c.14-.79.18-1.42.22-1.88,0-.56-.09-.86-.22-1.16-.19-.26-.45-.46-.91-.54-.41-.11-1.04-.15-1.87-.15h-22.98l1-3.95c.7-1.65,1.61-4.02,5.17-3.95,2.07.04,3.44,2.09,2.92,4.01h18.72l.25-.94c.26-1.03.32-2.13.17-3.33-.16-1.2-.48-2.36-.91-3.4" style="fill: #ec1c24;"/>
  <polygon points="277.86 89.53 293 89.53 295.59 79.77 280.45 79.77 277.86 89.53" style="fill: #ec1c24;"/>
  <path d="M379.14,74.43h0l-1.36,5.1h-8.08l1.4-5.22c.57-2.27,2.64-4.04,4.91-4.03,2.27.01,3.7,1.88,3.13,4.15M398.23,70.63c-.17-1.2-.45-2.36-.89-3.4-.47-1.04-1.02-1.96-1.69-2.65-.7-.71-1.35-1.09-2.09-1.09h-30.82c-.62,0-1.39.4-2.38,1.17-.97.79-1.94,1.74-2.9,2.83-.97,1.09-1.81,2.2-2.59,3.37-.75,1.14-1.27,2.06-1.44,2.71l-7.66,28.84h17.93l3.61-13.51h8.08l-3.57,13.51h18.72l7.53-28.46c.27-1.03.32-2.13.17-3.33Z" style="fill: #ec1c24;"/>
  <polygon points="434.01 63.49 430.15 77.75 426.68 63.49 409.44 63.49 399.07 102.41 416.28 102.41 419.82 89.13 423.61 102.41 442.39 102.41 452.72 63.49 434.01 63.49" style="fill: #ec1c24;"/>
  <polygon points="531.29 63.49 512.96 63.49 502.57 102.41 537.04 102.41 539.9 91.53 523.78 91.53 531.29 63.49" style="fill: #ec1c24;"/>
  <path d="M577.13,74.43h0l-1.36,5.1h-8.08l1.4-5.22c.57-2.27,2.64-4.04,4.91-4.03,2.27.01,3.7,1.88,3.13,4.15M590.73,63.49h-30.1c-4.42.1-7.61,3.62-8.72,7.8l-8.28,31.13h17.95l3.61-13.51h8.09l-3.6,13.51h18.72l7.55-28.46c1.71-6.46.93-10.47-5.21-10.47Z" style="fill: #ec1c24;"/>
  <path d="M501.49,67.23c-.43-1.04-1-1.96-1.69-2.65-.66-.71-1.35-1.09-2.07-1.09h-30.79c-5.11.17-7.91,4.94-8.64,7.4l-1.58,5.96-4.52,17.05c-1.03,3.83,0,8.45,4.34,8.52h38.03l2.73-10.13,1.17-4.32,1.06-3.94h-22.09l-2.3,8.68h2.93c-.46,1.35-1.87,2.52-4.16,2.33-2.36-.2-3.59-2.4-2.97-3.98l4.25-16.22c.62-1.59,1.7-4.08,5.15-3.95,2.41.09,3.32,2.05,2.88,3.95l-.86,3.14h18.77l1.1-4c.27-1.03.32-2.13.16-3.33-.16-1.2-.45-2.36-.92-3.4" style="fill: #ec1c24;"/>
  <path d="M188.46,121.6h0l-5.04,10.77h4.38l.65-10.77ZM194.6,141.12h-7.26l.22-4.65h-5.84l-2.02,4.65h-7.73l12.84-24.03h8.95l.83,24.03Z" style="fill: #0054a5;"/>
  <polygon points="240.31 141.12 232.86 141.12 239.01 117.09 246.45 117.09 240.31 141.12" style="fill: #0054a5;"/>
  <path d="M293.19,127.03h0c1.7,0,2.77-.22,3.42-.76.69-.54,1.18-1.8,1.16-2.92-.04-1.66-.99-2.12-4.38-2.12l-1.47,5.8h1.27ZM286.98,117.09h8.44c2.78,0,5.19.36,6.48.97,2.05.97,3.12,2.56,3.17,4.75.08,3.57-1.8,5.87-5.59,6.84,2.04.47,2.95,1.3,2.98,2.7.02.97-.15,1.95-.82,5.55-.09.36-.12.79-.11,1.19.02.72.17,1.15.75,2.02h-7.92c-.2-.5-.25-.79-.26-1.19q-.02-.76.91-5.73c.13-.5.17-.97.16-1.22-.02-.79-.6-1.37-1.5-1.62-.57-.11-1.13-.14-2.83-.18l-2.55,9.94h-7.45l6.15-24.03Z" style="fill: #0054a5;"/>
  <polygon points="349.24 136.44 359.09 136.44 357.92 141.12 340.58 141.12 346.73 117.09 354.17 117.09 349.24 136.44" style="fill: #0054a5;"/>
  <polygon points="404.1 141.12 396.66 141.12 402.8 117.09 410.25 117.09 404.1 141.12" style="fill: #0054a5;"/>
  <polygon points="464.61 141.12 456.97 141.12 455.08 128.26 451.79 141.12 444.63 141.12 450.87 117.09 458.6 117.09 460.44 129.99 463.73 117.09 470.76 117.09 464.61 141.12" style="fill: #0054a5;"/>
  <polygon points="511.28 117.09 528.1 117.09 526.89 121.81 517.51 121.81 516.39 126.35 525.48 126.35 524.27 131.03 515.17 131.03 513.79 136.44 523.73 136.44 522.52 141.12 505.13 141.12 511.28 117.09" style="fill: #0054a5;"/>
  <path d="M577.52,124.69c.26-1.15.3-1.51.28-2.05-.03-1.15-1.03-1.91-2.59-1.91s-2.76.9-2.73,2.2c.03,1.22.41,1.62,4.63,4.61,3.64,2.59,4.86,4.32,4.92,6.84.05,2.16-.9,4.11-2.56,5.37-1.81,1.33-4.29,1.98-7.73,1.98-3.16,0-5.53-.54-7.06-1.55-1.39-.94-2.27-2.52-2.31-4.07-.02-.79.06-1.4.44-3.31h6.74c-.44,1.3-.53,1.77-.51,2.38.03,1.4,1.18,2.27,2.93,2.27,1.89,0,3.09-.97,3.05-2.45-.02-1.12-.41-1.51-4.2-4.43-4.22-3.21-5.24-4.61-5.3-7.1-.05-2.02.76-3.78,2.34-5.04,1.67-1.33,3.96-1.95,7.26-1.95,5.75,0,9.14,1.98,9.22,5.37.02.76-.06,1.37-.36,2.85h-6.46Z" style="fill: #0054a5;"/>
</svg>