<?xml version="1.0" encoding="UTF-8"?>
<svg id="Layer_1" xmlns="http://www.w3.org/2000/svg" version="1.1" viewBox="0 0 267.99 141.73">
  <!-- Generator: Adobe Illustrator 29.3.1, SVG Export Plug-In . SVG Version: 2.1.0 Build 151)  -->
  <path d="M241.89,141.35v-17.9h2.3v2.53c.47-.87,1.1-1.58,1.89-2.11.79-.53,1.68-.8,2.69-.8,1.12,0,2.03.28,2.75.82.71.55,1.22,1.32,1.51,2.31,1.2-2.09,2.76-3.13,4.69-3.13,1.5,0,2.67.49,3.47,1.47.81.98,1.22,2.49,1.22,4.53v12.27h-2.56v-11.27c0-1.21-.09-2.08-.25-2.62-.17-.53-.47-.96-.91-1.29-.44-.33-.95-.49-1.54-.49-1.07,0-1.95.42-2.66,1.25-.7.84-1.05,2.18-1.05,4.02v10.39h-2.56v-11.62c0-1.35-.21-2.36-.63-3.03-.42-.67-1.1-1.01-2.05-1.01-.72,0-1.38.22-2,.67-.61.45-1.05,1.1-1.33,1.97-.27.86-.41,2.11-.41,3.74v9.28h-2.56ZM227.34,132.41c0,2.29.42,4,1.27,5.13.85,1.14,1.91,1.71,3.2,1.71s2.33-.57,3.18-1.71c.84-1.14,1.27-2.89,1.27-5.22,0-2.21-.43-3.88-1.28-5.01-.85-1.14-1.91-1.71-3.17-1.71s-2.35.56-3.2,1.7c-.85,1.13-1.27,2.84-1.27,5.12ZM224.72,132.4c0-3.31.78-5.75,2.34-7.35,1.3-1.32,2.88-1.98,4.75-1.98,2.07,0,3.77.8,5.09,2.41,1.32,1.6,1.98,3.83,1.98,6.66,0,2.3-.29,4.1-.87,5.42-.58,1.32-1.43,2.34-2.55,3.07-1.11.73-2.33,1.09-3.65,1.09-2.12,0-3.83-.8-5.13-2.4-1.31-1.6-1.96-3.91-1.96-6.93ZM220.99,134.8l2.51.41c-.28,2.04-.98,3.63-2.11,4.79-1.13,1.16-2.53,1.73-4.17,1.73-2.06,0-3.72-.8-4.98-2.4-1.26-1.6-1.88-3.89-1.88-6.86,0-1.93.27-3.62.81-5.06.54-1.44,1.36-2.53,2.47-3.25,1.1-.72,2.3-1.09,3.6-1.09,1.64,0,2.98.49,4.02,1.47,1.04.98,1.71,2.38,2.01,4.18l-2.48.45c-.24-1.2-.66-2.1-1.26-2.71-.6-.6-1.33-.91-2.19-.91-1.29,0-2.34.55-3.15,1.64-.81,1.1-1.21,2.82-1.21,5.19s.39,4.14,1.17,5.23c.78,1.09,1.8,1.63,3.04,1.63,1.01,0,1.85-.36,2.52-1.09.68-.72,1.1-1.84,1.28-3.36ZM194.89,141.35v-17.9h2.3v2.74c.59-1.27,1.13-2.11,1.63-2.51.5-.41,1.05-.61,1.65-.61.86,0,1.74.32,2.64.96l-.91,2.8c-.62-.41-1.24-.62-1.86-.62-.56,0-1.06.2-1.5.6-.44.4-.76.95-.95,1.66-.29,1.08-.43,2.25-.43,3.54v9.35h-2.56ZM188.45,141.35v-17.9h2.56v17.9h-2.56ZM188.45,120.11v-3.45h2.56v3.45h-2.56ZM181.92,132.39c-.93.45-2.33.83-4.2,1.14-1.06.18-1.81.38-2.24.6-.44.22-.77.55-1.01.98-.24.43-.36.91-.36,1.44,0,.8.26,1.47.78,2.01.52.53,1.28.8,2.27.8s1.86-.25,2.64-.76c.77-.51,1.34-1.2,1.69-2.08.28-.68.41-1.69.41-3.02v-1.1ZM182.12,139.11c-.95.96-1.87,1.63-2.75,2.03-.88.4-1.82.59-2.83.59-1.66,0-2.94-.48-3.83-1.44-.89-.95-1.34-2.18-1.34-3.67,0-.87.17-1.67.51-2.4.34-.72.78-1.3,1.33-1.74.55-.44,1.16-.77,1.85-.99.51-.16,1.27-.3,2.28-.45,2.07-.29,3.6-.64,4.57-1.04,0-.41.01-.68.01-.79,0-1.23-.24-2.1-.73-2.6-.66-.68-1.63-1.02-2.92-1.02-1.21,0-2.1.25-2.68.75-.58.5-1,1.39-1.28,2.66l-2.51-.41c.23-1.27.6-2.3,1.13-3.08.52-.78,1.28-1.38,2.27-1.8.99-.42,2.14-.63,3.44-.63s2.35.18,3.16.54c.81.36,1.4.81,1.78,1.36.38.55.65,1.24.8,2.07.08.52.13,1.45.13,2.79v4.02c0,2.81.05,4.59.16,5.34.1.75.32,1.47.63,2.16h-2.68c-.26-.64-.42-1.39-.5-2.24ZM156.32,141.35v-2.47l9.58-13.08c-1.09.07-2.04.1-2.87.1h-6.12v-2.45h12.32v1.99l-8.2,11.35-1.57,2.11c1.15-.12,2.23-.17,3.23-.17h7v2.62h-13.37ZM141.75,141.35v-2.47l9.58-13.08c-1.09.07-2.04.1-2.87.1h-6.12v-2.45h12.32v1.99l-8.2,11.35-1.57,2.11c1.15-.12,2.23-.17,3.23-.17h7v2.62h-13.37ZM136.63,141.35v-17.9h2.56v17.9h-2.56ZM118.31,141.35l-4.57-17.9h2.68l2.41,10.33.85,3.85c.03-.19.3-1.42.78-3.69l2.39-10.48h2.63l2.28,10.39.74,3.41.87-3.45,2.61-10.35h2.49l-4.74,17.9h-2.65l-2.4-10.71-.61-3.06-3.06,13.77h-2.71Z" style="fill: #722a82;"/>
  <path d="M137.92,116.48c.98,0,1.77.79,1.77,1.77s-.79,1.77-1.77,1.77-1.78-.79-1.78-1.77.79-1.77,1.78-1.77" style="fill: #722a82; fill-rule: evenodd;"/>
  <path d="M205.23,137.8c.98,0,1.77.79,1.77,1.77s-.79,1.78-1.77,1.78-1.78-.79-1.78-1.78.79-1.77,1.78-1.77" style="fill: #c52b80; fill-rule: evenodd;"/>
  <path d="M186.82,20h79.14c1.69,0,2.68,1.88,1.53,3.34l-47.14,61.78c-.89,1.03-.47,1.94.82,1.94h33.56c1.96,0,2.14,1.73,1.81,3.18l-3.08,15.85c-.17.9-.62,1.49-1.1,1.43l-72.67-.13c-2.35.04-2.34-1.48.05-4.57l47.87-62.55h-40.8v-20.26Z" style="fill: #c52b80;"/>
  <path d="M127.82,9.99h88.03c1.88-.01,2.98,2.09,1.7,3.72l-52.43,68.72c-.99,1.15-.52,2.16.91,2.16h37.33c2.19,0,2.38,1.92,2.01,3.53l-3.43,17.63c-.19,1-.68,1.66-1.22,1.59l-80.83-.14c-2.62.05-2.6-1.65.06-5.08l53.25-69.58h-45.38V9.99Z" style="fill: #722a82;"/>
  <path d="M107.57,85.09h18.66c.68,0,1.25-.57,1.47-1.96L141.82,3.83c.25-1.28.32-3.66-.97-3.83h-18.99c-.9,0-1.74.9-1.75,2.07l-14.32,80.32c-.06,1.6.53,2.71,1.78,2.71" style="fill: #c52b80; fill-rule: evenodd;"/>
  <path d="M112.6,121.3c7.6,0,13.77-6.16,13.77-13.77s-6.16-13.76-13.77-13.76-13.76,6.16-13.76,13.76,6.16,13.77,13.76,13.77" style="fill: #c52b80; fill-rule: evenodd;"/>
  <path d="M1.75,14.65h20.92c1.42-.08,2.13.92,2.11,3l2.1,48.97L51.85,14.65h19.95c1.5,0,2.06,1.03,2.08,2.42l1.78,49.7,24.38-51.31c.16-.45.55-.8,1.16-.8h22.22c1.12,0,1.25,1.44.93,2.23l-44.96,88.82c-.68,1.13-1.56,1.79-2.57,1.81h-15.62c-1.02,0-1.89-.53-2-2.14l-3.33-51.29-26.68,52.01c-.36.88-1.31,1.41-2.05,1.41h-15.89c-1.2.17-1.95-.9-2.08-2.42L.03,17.35c-.19-1.26.51-2.7,1.72-2.7" style="fill: #722a82;"/>
</svg>