<?xml version="1.0" encoding="UTF-8"?>
<svg id="Layer_1" xmlns="http://www.w3.org/2000/svg" version="1.1" viewBox="0 0 4875.4 2088">
  <!-- Generator: Adobe Illustrator 29.3.1, SVG Export Plug-In . SVG Version: 2.1.0 Build 151)  -->
  <g>
    <path d="M2899.69,410.31l41.67,90.67,66.69-56.58c29.15-25.85,37.11-31.8,62.36-64.35,48.4,8.24,39.45,14.88,79.47,41.64,7.75,5.19,52.12,39.82,55.74,41.01,50.16-46.5-92.43-151.1-143.12-192.35l-162.8,139.97ZM2952.73,194.48l-24.47,55.05,37.81,22.8,46.71-28.91-60.06-48.93ZM2507.32,63.8l81.74,5.56-43.37,58.94-43.93-1.67,5.56-62.84ZM3084.11,413.75l-84.52,65.62h98.98c27.09-4.08,17.52,21.17,37.03,40.81,6.59,6.63,76.28,13.35,88.64,14.79l85.08,5.01-57.27-83.97-68.95,65.62-4.45-50.04-94.53-57.83ZM1407.68,962.34c15.07-18.23,10.16-74.65,31.52-146.93,16.42-55.54,36.95-101.79,54.18-149.76,31.53,30.88,42.84,92.95,64.91,113.92,24.22,23.01,96.1,38.77,132.07,55.3,52.83,24.28,181.14,119.85,222.48,128.45,11.9,2.47,22.93-4.24,13.64-15.32-13.5-16.11-235.49-137.16-261.84-147.29-75.49-29.03-79.83-14.85-117.09-86.93-42.9-83-51.27-59.56-3.79-142.48,87.39-152.64,278.56-346.88,434.79-402.54,32.34,23.02,50.03,43.75,85.1,57.16,113.43-74.98,65.93-77.46,238.24-77.42l44.02,107.85c-30.98,32.51-312.53,193.17-363.92,250.93-48.75,54.8-63.04,41.98-67.51,139.28-46.77-5.01-88.07-42.16-125.85-48.18-41.38-6.59-89.94,36.47-129.12,47.65l38.34,141.12,104.06-38.33c10.87,27.4,97.55,165.08,117.06,180.53,58.01-15.39,103.67-67.62,158.13-39.24,21.96,11.44,107.13,62.95,144.18,75.06,17.17,5.61,27.29-2.03,10.07-17.4-41.03-36.66-166.62-97.53-181.38-98.97-39.68-3.86-62.88,33.83-122.49,52.24-17.2-13.66-105.97-155.3-114.97-178.65l-98.38,36.22-29.15-100.15c56.01-20.76,72.8-52.03,124.3-28.36,38.03,17.47,87.31,42.71,126.51,53.45,5.8-135.52-4.43-79.39,61.38-152.32,85.7-94.97,273.52-175.62,375.95-265.6l-54.92-139.18c-203.36-15.28-153.99,11.67-254.56,71.06-31.45-15.45-33.86-22.04-56.95-41.95,120.03-69.26,316.83-97.98,475.58-95.92l-6.94,88.49,74.4,14c64.45-64.32,36.96-102.85,173.51-61.19,72.98,22.27,143.11,59.38,203.19,76.8l-29.5,89.03,69.47,33.78c10.83,5.27,32.95-13.4,49.83-24.45-47.04,40.87-104.24,76.71-146.89,125.68l46.04,109.96c-31.88,30.45-167.96,191.48-167.62,213.42l79.39,214.1c13.2,23.52-3.21,9.72,23.62,23.97.02-.04,14.34,16.27.67-36.43l-46.68-117.05c-54.2-125.54-20.36-89.25,107.08-257.69,22.95-30.34,18.44-35.66,65.64-42.21,78.48-10.89,105.81-9.49,117.32-2.7,15.77,9.3,11.33,43.19,34.68,41.75,171.93,40.9,200.59-17.87,239.12,95.8,23.68,50,43.5,95.38,60.07,152.48l30.23,131.62c3.16,12.28,1.55,26.5,6.96,32.31,9.84,10.58,29.91,6.22,34.97-2.46,3.32-5.7-.73-26.4-3.3-50.1-16.83-155.49-152.42-419.96-270.5-538.48-389.32-390.81-985.71-480.39-1438.12-123.98-24.05,18.95-54.14,40.16-71.11,56.81-85.99,84.4-151.18,162.09-220.22,281.61-21.76,37.67-130.28,288.71-124.12,374.25.06.75,33.73,4.17,34.22,3.57Z" style="fill: #f58220; fill-rule: evenodd;"/>
    <path d="M1871.72,703.27l-7.78,31.7c16.01,8.59,129.08,72.51,138.46,72.84,8.26.29,73.3-42.71,73.88-53.99.66-12.87-6.56-16.61-9.39-16.77-17.69-.99-55.7,33.93-58.38,36.28l-136.79-70.06Z" style="fill: #f58220; fill-rule: evenodd;"/>
  </g>
  <g>
    <polygon points="495.68 1658.24 393.8 1658.24 356.08 1564.67 318.7 1658.24 217.5 1658.24 23.87 1176.05 147.75 1176.05 266.61 1498.23 296.7 1416.86 200.17 1176.05 324.05 1176.05 443.6 1498.23 562.81 1176.05 689.31 1176.05 495.68 1658.24" style="fill: #f58220;"/>
    <polygon points="1114.06 1661.54 993.14 1661.54 853.64 1318.28 753.13 1565.36 859 1565.36 859 1661.54 595.86 1661.54 801.56 1176.74 907.67 1176.74 1114.06 1661.54" style="fill: #f58220;"/>
    <polygon points="1611.17 1659.49 1512.02 1659.49 1288.99 1367.06 1288.99 1659.49 1174.11 1659.49 1174.11 1176.05 1279.99 1176.05 1495.61 1459.25 1495.61 1176.05 1611.17 1176.05 1611.17 1659.49" style="fill: #f58220;"/>
    <path d="M1863.26,1275.2h-75.79v284.45h75.79c82.74,0,129.01-46.95,138.81-140.86,0-84.79-46.27-132.65-138.81-143.59M1863.26,1658.92h-192.03v-482.87h192.03c78.06,0,140.86,23.25,188.27,69.86,48.32,46.27,72.48,103.25,72.48,170.95s-24.16,125.02-72.48,172.2c-47.41,46.5-110.21,69.86-188.27,69.86Z" style="fill: #f58220;"/>
    <rect x="2184.07" y="1176.74" width="371.98" height="97.89" style="fill: #f58220;"/>
    <polygon points="2288.58 1561.03 2556.05 1561.03 2556.05 1658.92 2184.07 1658.92 2184.07 1369.11 2416.45 1369.11 2416.45 1466.89 2288.58 1466.89 2288.58 1561.03" style="fill: #f58220;"/>
    <path d="M3042.11,1658.92h-133.23l-170.26-250.15h94.82c47.86,0,73.05-21.88,75.44-65.76,0-44.56-25.75-67.13-77.38-67.81h-99.15v383.72h-116.25v-482.87h224.4c62.79,0,111,16.98,144.85,50.83,27.35,27.81,41.14,64.16,41.14,109.18,0,78.75-33.96,128.9-101.89,150.55l117.5,172.32Z" style="fill: #f58220;"/>
    <polygon points="3457.86 1659.49 3102.28 1659.49 3102.28 1176.05 3218.53 1176.05 3218.53 1559.66 3457.86 1559.66 3457.86 1659.49" style="fill: #f58220;"/>
    <path d="M3945.97,1448.2c0,36.24-5.01,68.04-15.04,95.16-9.8,26.67-23.93,49.35-42.4,67.81-18.69,18.23-41.49,32.14-68.49,41.71-26.9,9.12-56.75,13.68-89.47,13.68-66.32,0-118.29-18.23-155.9-54.82-37.84-36.24-56.76-89.58-56.76-159.89v-275.8h116.25v272.83c0,39.78,8.66,69.06,25.98,87.75,17.78,19.15,41.71,28.72,71.8,28.72s54.02-9.12,71.8-27.35c17.32-18.69,25.99-47.18,25.99-85.48v-276.48h116.24v272.15Z" style="fill: #f58220;"/>
    <path d="M4375.96,1231.55l-57.44,82.74c-40.08-26.72-81.06-49.46-124.56-49.46-66.79,0-66.41,56.94-36.01,74.88,61.43,36.23,232.37,27.96,232.37,169.58s-168.71,173.35-287.07,130.61c-35.45-12.99-67.81-32.6-97.21-58.81l65.76-78.75c45.48,36.84,86.32,60.74,142.23,60.74,32.87,0,62.11-9.66,62.11-43.76,0-28.02-17.7-34.52-44.45-44.45-84.91-31.5-206.62-30.48-206.62-161.26,0-65.41,39.75-113.78,101.2-134.25,49.56-16.51,119.58-11.07,166.96,5.7,29.97,10.71,57.55,26.21,82.74,46.5" style="fill: #f58220;"/>
    <polygon points="4589.3 1277.25 4443.77 1277.25 4443.77 1176.05 4851.42 1176.05 4851.42 1277.25 4705.54 1277.25 4705.54 1658.92 4589.3 1658.92 4589.3 1277.25" style="fill: #f58220;"/>
  </g>
  <g>
    <rect x="1465.72" y="1871.78" width="151.38" height="39.84" style="fill: #231f20;"/>
    <rect x="2430.65" y="1871.78" width="151.38" height="39.84" style="fill: #231f20;"/>
    <g>
      <polygon points="1028.05 2069.07 978.84 2069.07 922.08 1929.38 881.17 2029.93 924.26 2029.93 924.26 2069.07 817.17 2069.07 900.88 1871.78 944.06 1871.78 1028.05 2069.07" style="fill: #231f20;"/>
      <path d="M1130.64,2027.61c33.67,0,56.2-20.77,56.49-57.32.29-36.55-18.57-58.44-56.49-58.44h-30.84v115.76h30.84ZM1130.64,1871.5c31.77,0,57.32,9.46,76.62,28.43,19.67,18.83,28.69,42.02,28.69,69.56s-9.02,50.87-28.69,70.08c-19.29,18.92-44.84,28.43-76.62,28.43h-78.15v-196.5h78.15Z" style="fill: #231f20;"/>
      <polygon points="1240.83 1871.5 1292.59 1871.5 1341.52 2003.72 1390.58 1871.5 1441.23 1871.5 1361.88 2069.35 1320.18 2069.35 1240.83 1871.5" style="fill: #231f20;"/>
      <polygon points="1508.24 2028.17 1617.09 2028.17 1617.09 2068.01 1465.72 2068.01 1465.72 1950.07 1560.28 1950.07 1560.28 1989.86 1508.24 1989.86 1508.24 2028.17" style="fill: #231f20;"/>
      <polygon points="1819.39 2068.24 1779.04 2068.24 1688.28 1949.23 1688.28 2068.24 1641.53 2068.24 1641.53 1871.5 1684.62 1871.5 1772.36 1986.75 1772.36 1871.5 1819.39 1871.5 1819.39 2068.24" style="fill: #231f20;"/>
      <polygon points="1903.06 1912.69 1843.83 1912.69 1843.83 1871.5 2009.72 1871.5 2009.72 1912.69 1950.36 1912.69 1950.36 2068.01 1903.06 2068.01 1903.06 1912.69" style="fill: #231f20;"/>
      <path d="M2120.71,2071.11c-26.99,0-48.14-7.42-63.45-22.31-15.4-14.75-23.1-36.45-23.1-65.07v-112.23h47.3v111.03c0,16.19,3.52,28.11,10.58,35.71,7.23,7.79,16.97,11.69,29.22,11.69s21.98-3.71,29.22-11.13c7.05-7.61,10.58-19.2,10.58-34.78v-112.51h47.3v110.75c0,14.75-2.04,27.69-6.12,38.73-3.98,10.85-9.74,20.08-17.25,27.59-7.6,7.42-16.88,13.08-27.87,16.98-10.94,3.71-23.1,5.56-36.4,5.56" style="fill: #231f20;"/>
      <path d="M2324.12,1871.5c25.55,0,45.17,6.91,58.94,20.68,11.13,11.32,16.74,26.11,16.74,44.43,0,32.05-13.82,52.45-41.46,61.26l47.82,70.12h-54.22l-69.29-101.8h38.59c19.48,0,29.73-8.91,30.7-26.76,0-18.13-10.48-27.32-31.49-27.59h-40.35v156.15h-47.31v-196.5h91.32Z" style="fill: #231f20;"/>
      <polygon points="2473.18 2028.17 2582.03 2028.17 2582.03 2068.01 2430.65 2068.01 2430.65 1950.07 2525.22 1950.07 2525.22 1989.86 2473.18 1989.86 2473.18 2028.17" style="fill: #231f20;"/>
      <path d="M2757.01,1894.09l-23.37,33.67c-16.77-11.18-49.94-29.32-67.38-15.63-8.95,7.02-7.4,20.4,2.04,25.97,25.74,15.2,94.56,10.97,94.56,69.57,0,69.82-100.07,78.86-156.39,28.66l26.76-32.05c18.51,15,35.12,24.72,57.88,24.72,30.41,0,29.52-23.76,18.64-30.84-26.52-17.25-95.54-9.38-95.54-70.68s89-76.72,142.8-33.39" style="fill: #231f20;"/>
      <path d="M2964.22,1871.5c48.19,0,73.83,22.73,77.03,68.22,0,48.57-38.23,70.12-82.6,70.12l-26.39-39.84h29.22c20.04,0,30.66-9.65,31.95-28.94,0-18.92-10.99-28.66-32.88-29.22h-30.84v156.39h-47.3v-196.73h81.81Z" style="fill: #231f20;"/>
      <polygon points="3052.11 1871.5 3103.87 1871.5 3152.8 2003.72 3201.87 1871.5 3252.51 1871.5 3173.16 2069.35 3131.46 2069.35 3052.11 1871.5" style="fill: #231f20;"/>
      <polygon points="3336.22 1912.69 3277 1912.69 3277 1871.5 3442.89 1871.5 3442.89 1912.69 3383.53 1912.69 3383.53 2068.01 3336.22 2068.01 3336.22 1912.69" style="fill: #231f20;"/>
      <polygon points="3707.15 2068.24 3562.45 2068.24 3562.45 1871.5 3609.76 1871.5 3609.76 2027.61 3707.15 2027.61 3707.15 2068.24" style="fill: #231f20;"/>
      <polygon points="3743.56 1912.69 3684.33 1912.69 3684.33 1871.5 3850.23 1871.5 3850.23 1912.69 3790.86 1912.69 3790.86 2068.01 3743.56 2068.01 3743.56 1912.69" style="fill: #231f20;"/>
      <path d="M3952.81,2027.61c33.67,0,56.2-20.77,56.49-57.32.29-36.55-18.57-58.44-56.49-58.44h-30.84v115.76h30.84ZM3952.81,1871.5c31.77,0,57.32,9.46,76.61,28.43,19.67,18.83,28.69,42.02,28.69,69.56s-9.02,50.87-28.69,70.08c-19.29,18.92-44.84,28.43-76.61,28.43h-78.15v-196.5h78.15Z" style="fill: #231f20;"/>
    </g>
  </g>
</svg>