<?xml version="1.0" encoding="UTF-8"?>
<svg id="Layer_1" xmlns="http://www.w3.org/2000/svg" version="1.1" viewBox="0 0 4875.4 983.74">
  <!-- Generator: Adobe Illustrator 29.3.1, SVG Export Plug-In . SVG Version: 2.1.0 Build 151)  -->
  <g>
    <polygon points="495.68 553.98 393.8 553.98 356.08 460.42 318.7 553.98 217.5 553.98 23.87 71.79 147.75 71.79 266.61 393.97 296.7 312.6 200.17 71.79 324.05 71.79 443.6 393.97 562.81 71.79 689.31 71.79 495.68 553.98" style="fill: #f58220;"/>
    <polygon points="1114.06 557.28 993.14 557.28 853.64 214.02 753.13 461.1 859 461.1 859 557.28 595.86 557.28 801.56 72.48 907.67 72.48 1114.06 557.28" style="fill: #f58220;"/>
    <polygon points="1611.17 555.23 1512.02 555.23 1288.99 262.8 1288.99 555.23 1174.11 555.23 1174.11 71.79 1279.99 71.79 1495.61 355 1495.61 71.79 1611.17 71.79 1611.17 555.23" style="fill: #f58220;"/>
    <path d="M1863.26,170.94h-75.79v284.45h75.79c82.74,0,129.01-46.95,138.81-140.86,0-84.79-46.27-132.65-138.81-143.59M1863.26,554.66h-192.03V71.79h192.03c78.06,0,140.86,23.25,188.27,69.86,48.32,46.27,72.48,103.25,72.48,170.95s-24.16,125.02-72.48,172.2c-47.41,46.5-110.21,69.86-188.27,69.86Z" style="fill: #f58220;"/>
    <rect x="2184.07" y="72.48" width="371.98" height="97.89" style="fill: #f58220;"/>
    <polygon points="2288.58 456.77 2556.05 456.77 2556.05 554.66 2184.07 554.66 2184.07 264.85 2416.45 264.85 2416.45 362.63 2288.58 362.63 2288.58 456.77" style="fill: #f58220;"/>
    <path d="M3042.11,554.66h-133.23l-170.26-250.15h94.82c47.86,0,73.05-21.88,75.44-65.76,0-44.56-25.75-67.13-77.38-67.81h-99.15v383.72h-116.25V71.79h224.4c62.79,0,111,16.98,144.85,50.83,27.35,27.81,41.14,64.16,41.14,109.18,0,78.75-33.96,128.9-101.89,150.55l117.5,172.32Z" style="fill: #f58220;"/>
    <polygon points="3457.86 555.23 3102.28 555.23 3102.28 71.79 3218.53 71.79 3218.53 455.4 3457.86 455.4 3457.86 555.23" style="fill: #f58220;"/>
    <path d="M3945.97,343.94c0,36.24-5.01,68.04-15.04,95.16-9.8,26.67-23.93,49.35-42.4,67.81-18.69,18.23-41.49,32.14-68.49,41.71-26.9,9.12-56.75,13.68-89.47,13.68-66.32,0-118.29-18.23-155.9-54.82-37.84-36.24-56.76-89.58-56.76-159.89V71.79h116.25v272.83c0,39.78,8.66,69.06,25.98,87.75,17.78,19.15,41.71,28.72,71.8,28.72s54.02-9.12,71.8-27.35c17.32-18.69,25.99-47.18,25.99-85.48V71.79h116.24v272.15Z" style="fill: #f58220;"/>
    <path d="M4375.96,127.29l-57.44,82.74c-40.08-26.72-81.06-49.46-124.56-49.46-66.79,0-66.41,56.94-36.01,74.88,61.43,36.23,232.37,27.96,232.37,169.58s-168.71,173.35-287.07,130.61c-35.45-12.99-67.81-32.6-97.21-58.81l65.76-78.75c45.48,36.84,86.32,60.74,142.23,60.74,32.87,0,62.11-9.66,62.11-43.76,0-28.02-17.7-34.52-44.45-44.45-84.91-31.5-206.62-30.48-206.62-161.26,0-65.41,39.75-113.78,101.2-134.25,49.56-16.51,119.58-11.07,166.96,5.7,29.97,10.71,57.55,26.21,82.74,46.5" style="fill: #f58220;"/>
    <polygon points="4589.3 172.99 4443.77 172.99 4443.77 71.79 4851.42 71.79 4851.42 172.99 4705.54 172.99 4705.54 554.66 4589.3 554.66 4589.3 172.99" style="fill: #f58220;"/>
  </g>
  <g>
    <rect x="1465.72" y="767.52" width="151.38" height="39.84" style="fill: #fff;"/>
    <rect x="2430.65" y="767.52" width="151.38" height="39.84" style="fill: #fff;"/>
    <g>
      <polygon points="1028.05 964.81 978.84 964.81 922.08 825.13 881.17 925.67 924.26 925.67 924.26 964.81 817.17 964.81 900.88 767.52 944.06 767.52 1028.05 964.81" style="fill: #fff;"/>
      <path d="M1130.64,923.35c33.67,0,56.2-20.77,56.49-57.32.29-36.55-18.57-58.44-56.49-58.44h-30.84v115.76h30.84ZM1130.64,767.25c31.77,0,57.32,9.46,76.62,28.43,19.67,18.83,28.69,42.02,28.69,69.56s-9.02,50.87-28.69,70.08c-19.29,18.92-44.84,28.43-76.62,28.43h-78.15v-196.5h78.15Z" style="fill: #fff;"/>
      <polygon points="1240.83 767.24 1292.59 767.24 1341.52 899.47 1390.58 767.24 1441.23 767.24 1361.88 965.09 1320.18 965.09 1240.83 767.24" style="fill: #fff;"/>
      <polygon points="1508.24 923.91 1617.09 923.91 1617.09 963.75 1465.72 963.75 1465.72 845.81 1560.28 845.81 1560.28 885.6 1508.24 885.6 1508.24 923.91" style="fill: #fff;"/>
      <polygon points="1819.39 963.98 1779.04 963.98 1688.28 844.98 1688.28 963.98 1641.53 963.98 1641.53 767.24 1684.62 767.24 1772.36 882.49 1772.36 767.24 1819.39 767.24 1819.39 963.98" style="fill: #fff;"/>
      <polygon points="1903.06 808.43 1843.83 808.43 1843.83 767.24 2009.72 767.24 2009.72 808.43 1950.36 808.43 1950.36 963.75 1903.06 963.75 1903.06 808.43" style="fill: #fff;"/>
      <path d="M2120.71,966.86c-26.99,0-48.14-7.42-63.45-22.31-15.4-14.75-23.1-36.45-23.1-65.07v-112.23h47.3v111.03c0,16.19,3.52,28.11,10.58,35.71,7.23,7.79,16.97,11.69,29.22,11.69s21.98-3.71,29.22-11.13c7.05-7.61,10.58-19.2,10.58-34.78v-112.51h47.3v110.75c0,14.75-2.04,27.69-6.12,38.73-3.98,10.85-9.74,20.08-17.25,27.59-7.6,7.42-16.88,13.08-27.87,16.98-10.94,3.71-23.1,5.56-36.4,5.56" style="fill: #fff;"/>
      <path d="M2324.12,767.25c25.55,0,45.17,6.91,58.94,20.68,11.13,11.32,16.74,26.11,16.74,44.43,0,32.05-13.82,52.45-41.46,61.26l47.82,70.12h-54.22l-69.29-101.8h38.59c19.48,0,29.73-8.91,30.7-26.76,0-18.13-10.48-27.32-31.49-27.59h-40.35v156.15h-47.31v-196.5h91.32Z" style="fill: #fff;"/>
      <polygon points="2473.18 923.91 2582.03 923.91 2582.03 963.75 2430.65 963.75 2430.65 845.81 2525.22 845.81 2525.22 885.6 2473.18 885.6 2473.18 923.91" style="fill: #fff;"/>
      <path d="M2757.01,789.83l-23.37,33.67c-16.77-11.18-49.94-29.32-67.38-15.63-8.95,7.02-7.4,20.4,2.04,25.97,25.74,15.2,94.56,10.97,94.56,69.57,0,69.82-100.07,78.86-156.39,28.66l26.76-32.05c18.51,15,35.12,24.72,57.88,24.72,30.41,0,29.52-23.76,18.64-30.84-26.52-17.25-95.54-9.38-95.54-70.68s89-76.72,142.8-33.39" style="fill: #fff;"/>
      <path d="M2964.22,767.25c48.19,0,73.83,22.73,77.03,68.22,0,48.57-38.23,70.12-82.6,70.12l-26.39-39.84h29.22c20.04,0,30.66-9.65,31.95-28.94,0-18.92-10.99-28.66-32.88-29.22h-30.84v156.39h-47.3v-196.73h81.81Z" style="fill: #fff;"/>
      <polygon points="3052.11 767.24 3103.87 767.24 3152.8 899.47 3201.87 767.24 3252.51 767.24 3173.16 965.09 3131.46 965.09 3052.11 767.24" style="fill: #fff;"/>
      <polygon points="3336.22 808.43 3277 808.43 3277 767.24 3442.89 767.24 3442.89 808.43 3383.53 808.43 3383.53 963.75 3336.22 963.75 3336.22 808.43" style="fill: #fff;"/>
      <polygon points="3707.15 963.98 3562.45 963.98 3562.45 767.24 3609.76 767.24 3609.76 923.35 3707.15 923.35 3707.15 963.98" style="fill: #fff;"/>
      <polygon points="3743.56 808.43 3684.33 808.43 3684.33 767.24 3850.23 767.24 3850.23 808.43 3790.86 808.43 3790.86 963.75 3743.56 963.75 3743.56 808.43" style="fill: #fff;"/>
      <path d="M3952.81,923.35c33.67,0,56.2-20.77,56.49-57.32.29-36.55-18.57-58.44-56.49-58.44h-30.84v115.76h30.84ZM3952.81,767.25c31.77,0,57.32,9.46,76.61,28.43,19.67,18.83,28.69,42.02,28.69,69.56s-9.02,50.87-28.69,70.08c-19.29,18.92-44.84,28.43-76.61,28.43h-78.15v-196.5h78.15Z" style="fill: #fff;"/>
    </g>
  </g>
</svg>